<?xml version="1.0" encoding="UTF-8" standalone="no" ?>
<!DOCTYPE svg PUBLIC "-//W3C//DTD SVG 1.1//EN" "http://www.w3.org/Graphics/SVG/1.1/DTD/svg11.dtd">
<svg xmlns="http://www.w3.org/2000/svg" xmlns:xlink="http://www.w3.org/1999/xlink" version="1.1" width="500" height="500" viewBox="0 0 500 500" xml:space="preserve">
<desc>Created with Fabric.js 3.6.3</desc>
<defs>
</defs>
<rect x="0" y="0" width="100%" height="100%" fill="#ffffff"></rect>
<g transform="matrix(1 0 0 1 250.24999999999997 229.79148335327733)" style=""  ><path fill="#000000" opacity="1" d="M-80.17 31.51L-80.17 34.45L-84.71 34.45Q-90.93 34.45-94.64 26.34L-94.64 26.34Q-96.04 22.28-97.37 18.09Q-98.69 13.89-100.30 10.36Q-101.91 6.83-103.97 4.45Q-106.04 2.08-108.83 1.73L-108.83 1.73Q-108.83 2.70-108.80 4.91Q-108.76 7.11-108.73 9.94Q-108.69 12.77-108.62 15.88Q-108.55 19.00-108.55 21.79L-108.55 21.79Q-108.48 27.53-108.34 29.17Q-108.20 30.81-107.61 31.20Q-107.02 31.58-106.35 31.58Q-105.69 31.58-105.41 31.51L-105.41 31.51L-105.41 34.45L-117.92 34.45L-117.92 31.51L-117.29 31.51Q-116.11 31.51-115.62 31.16Q-115.13 30.81-115.02 29.97Q-114.92 29.14-114.88 27.39Q-114.85 25.64-114.81 23.09Q-114.78 20.53-114.74 17.42Q-114.71 14.31-114.67 11.13Q-114.64 7.95-114.60 4.98Q-114.57 2.01-114.57-1.91Q-114.57-5.83-114.60-9.57Q-114.64-13.31-114.71-15.75Q-114.78-18.20-114.95-19.53Q-115.13-20.86-115.41-21.52Q-115.69-22.19-116.11-22.29Q-116.52-22.40-116.87-22.40L-116.87-22.40L-117.50-22.40Q-117.78-22.40-117.92-22.33L-117.92-22.33L-117.92-25.26L-105.41-25.26L-105.41-22.33Q-105.55-22.40-106.25-22.40Q-106.95-22.40-107.54-21.84Q-108.13-21.28-108.41-19.04L-108.41-19.04Q-108.83-15.68-108.83-0.16L-108.83-0.16Q-105.06-0.30-103.59-6.73L-103.59-6.73Q-102.89-9.74-102.33-13.03Q-101.77-16.31-100.79-19.04Q-99.81-21.77-98.24-23.52Q-96.67-25.26-93.94-25.26L-93.94-25.26L-89.33-25.26L-89.33-22.33L-92.05-22.33Q-94.85-22.33-95.90-17.64L-95.90-17.64Q-96.53-14.78-97.12-12.01Q-97.72-9.25-98.55-6.87L-98.55-6.87Q-100.44-1.49-104.01 0.33L-104.01 0.33Q-97.37 2.08-93.66 10.26L-93.66 10.26Q-92.61 13.61-91.53 17.35Q-90.44 21.09-89.15 24.24Q-87.86 27.39-86.32 29.45Q-84.78 31.51-82.82 31.51L-82.82 31.51L-80.17 31.51Z"/><path fill="#000000" opacity="1" d="M-51.15 19.56L-51.15 22.49L-63.66 22.49L-63.66 19.56L-62.68 19.56Q-61.92 19.56-61.50 19.42L-61.50 19.42Q-61.08 19.14-60.87 18.44L-60.87 18.44Q-60.59 17.46-60.59 12.28L-60.59 12.28L-60.59-1.21Q-60.80-3.31-61.95-4.92Q-63.10-6.53-65.20-6.53Q-67.30-6.53-68.59-4.88Q-69.89-3.24-69.89-1.07L-69.89-1.07L-69.89 12.84Q-69.89 16.62-69.36 18.09Q-68.84 19.56-66.67 19.56L-66.67 19.56L-66.67 22.49L-79.19 22.49L-79.19 19.56L-78.14 19.56Q-76.39 19.56-76.25 17.53L-76.25 17.53Q-75.83 8.58-75.83-0.30L-75.83-0.30Q-75.83-14.64-76.25-22.47L-76.25-22.47Q-76.39-23.87-77.09-24.15Q-77.79-24.43-79.19-24.43L-79.19-24.43L-79.19-27.36L-69.54-27.36Q-69.54-21.63-69.82-6.80L-69.82-6.80Q-68.07-9.39-65.13-9.39Q-62.20-9.39-60.27-8.66Q-58.35-7.92-56.95-6.60L-56.95-6.60Q-54.15-3.94-54.22 0.19L-54.22 0.19L-54.22 8.93Q-54.22 16.27-53.73 17.70Q-53.25 19.14-52.65 19.35Q-52.06 19.56-51.15 19.56L-51.15 19.56Z"/><path fill="#000000" opacity="1" d="M-42.69 14.45L-42.69 14.45Q-42.69 18.58-38.07 18.58L-38.07 18.58Q-36.25 18.58-35.03 17.11Q-33.81 15.64-33.81 13.54L-33.81 13.54Q-33.81 9.07-33.95 4.31L-33.95 4.31Q-35.00 5.85-36.50 6.90Q-38.00 7.95-39.37 8.96Q-40.73 9.98-41.71 11.24Q-42.69 12.49-42.69 14.45ZM-40.52 23.12L-40.52 23.12Q-49.75 23.12-49.75 14.94L-49.75 14.94Q-49.75 10.82-46.39 9.07L-46.39 9.07Q-44.72 8.23-42.93 7.46Q-41.15 6.69-39.54 5.85L-39.54 5.85Q-35.56 3.75-34.09 1.87L-34.09 1.87Q-34.23-3.03-34.82-4.32Q-35.42-5.62-36.18-5.97Q-36.95-6.32-38.14-6.32L-38.14-6.32Q-42.27-6.32-42.27-4.43L-42.27-4.43Q-39.40-3.38-39.40 0.05L-39.40 0.05Q-39.40 1.87-40.59 3.26Q-41.78 4.66-43.56 4.66Q-45.34 4.66-46.53 3.33Q-47.72 2.01-47.72-0.06Q-47.72-2.12-46.95-3.87Q-46.18-5.62-44.78-6.80L-44.78-6.80Q-41.99-9.25-37.65-9.25L-37.65-9.25Q-35.14-9.25-33.28-8.62Q-31.43-7.99-30.24-6.11L-30.24-6.11Q-27.93-2.47-27.93 8.37L-27.93 8.37Q-27.93 13.61-27.69 16.51Q-27.44 19.42-26.54 19.42L-26.54 19.42Q-26.12 19.42-25.80 19.00Q-25.49 18.58-25.49 17.81L-25.49 17.81L-25.49 15.64L-22.83 15.64L-22.83 18.02Q-22.83 20.12-24.23 21.58Q-25.63 23.05-27.79 23.05L-27.79 23.05Q-31.29 23.05-32.83 19.91L-32.83 19.91Q-36.95 23.12-40.52 23.12Z"/><path fill="#000000" opacity="1" d="M0.59-0.30L0.59-0.30Q0.59 1.94-0.66 3.30Q-1.92 4.66-3.74 4.66Q-5.56 4.66-6.68 3.26Q-7.80 1.87-7.80 0.01Q-7.80-1.84-6.92-3.13Q-6.05-4.43-4.44-4.43L-4.44-4.43Q-4.44-6.32-7.10-6.32Q-9.75-6.32-11.19-2.68Q-12.62 0.96-12.62 5.85L-12.62 5.85Q-12.62 14.52-12.27 16.69Q-11.92 18.86-11.50 19.21Q-11.08 19.56-9.26 19.56L-9.26 19.56L-9.26 22.49L-21.78 22.49L-21.78 19.56L-20.80 19.56Q-18.70 19.56-18.49 14.31L-18.49 14.31Q-18.42 12.70-18.42 9.56L-18.42 9.56Q-18.42-1.70-18.98-4.78L-18.98-4.78Q-19.12-5.48-19.96-5.58Q-20.80-5.69-21.78-5.69L-21.78-5.69L-21.78-8.62L-13.04-8.62L-13.04-4.99Q-11.92-9.25-7.17-9.25L-7.17-9.25Q-3.32-9.25-1.36-7.15Q0.59-5.06 0.59-0.30Z"/><path fill="#000000" opacity="1" d="M13.88 19.56L13.88 22.49L1.43 22.49L1.43 19.56L2.41 19.56Q3.25 19.56 3.74 18.93Q4.23 18.30 4.44 16.41L4.44 16.41Q4.79 13.26 4.79 1.52L4.79 1.52Q4.79-1.77 4.23-3.59Q3.67-5.41 1.43-5.69L1.43-5.69L1.43-8.62L11.08-8.62Q11.08-0.02 10.87 3.75Q10.66 7.53 10.66 9.35Q10.66 11.17 10.77 13.47Q10.87 15.78 11.15 17.18L11.15 17.18Q11.71 19.56 13.88 19.56L13.88 19.56ZM3.25-20.89Q3.25-22.75 4.44-24.15Q5.63-25.54 7.41-25.54Q9.19-25.54 10.38-24.15Q11.57-22.75 11.57-20.89Q11.57-19.04 10.38-17.64Q9.19-16.24 7.41-16.24Q5.63-16.24 4.44-17.64Q3.25-19.04 3.25-20.89Z"/><path fill="#000000" opacity="1" d="M31.29 14.59L31.29-0.93Q31.29-3.10 30.42-4.29Q29.54-5.48 28.74-5.93Q27.93-6.39 26.95-6.39Q25.98-6.39 25.21-5.93Q24.44-5.48 23.88-4.71L23.88-4.71Q22.69-3.10 22.69-0.93L22.69-0.93L22.69 14.59Q22.69 16.83 23.88 18.44Q25.07 20.05 26.92 20.05Q28.77 20.05 30.03 18.37Q31.29 16.69 31.29 14.59L31.29 14.59ZM37.79-27.36L37.79-24.56L37.58 0.19Q37.58 13.19 37.86 15.99Q38.14 18.79 38.56 19.21L38.56 19.21Q38.91 19.63 39.61 19.63L39.61 19.63L40.59 19.63Q40.87 19.63 40.94 19.56L40.94 19.56L40.94 22.49Q37.23 22.35 36.25 21.93Q35.28 21.51 34.79 20.95Q34.30 20.39 33.74 19.42L33.74 19.42Q32.48 20.95 30.66 21.97Q28.84 22.98 26.68 22.98Q24.51 22.98 22.51 21.83Q20.52 20.67 19.05 18.72L19.05 18.72Q15.98 14.66 15.98 9.14L15.98 9.14L15.98 4.52Q15.98-1.00 19.12-5.06L19.12-5.06Q22.34-9.25 26.95-9.32L26.95-9.32Q29.75-9.32 31.78-6.39L31.78-6.39Q31.71-7.43 31.71-9.11Q31.71-10.79 31.64-12.89L31.64-12.89Q31.43-19.25 31.08-22.47L31.08-22.47Q30.87-24.50 29.05-24.50L29.05-24.50L28.77-24.50Q28.56-24.50 28.14-24.43L28.14-24.43L28.14-27.36L37.79-27.36Z"/><path fill="#000000" opacity="1" d="M45.62 25.71L45.62 25.71L45.90 2.29L45.90-2.61Q45.90-4.08 45.87-6.00Q45.83-7.92 45.80-10.09Q45.76-12.26 45.69-14.29Q45.62-16.31 45.59-17.92Q45.55-19.53 45.45-20.65Q45.34-21.77 44.72-22.05Q44.09-22.33 42.55-22.33L42.55-22.33L42.55-25.26L55.06-25.26L55.06-22.33L54.22-22.40Q52.55-22.40 52.20-20.37L52.20-20.37Q52.20-20.02 52.09-17.64Q51.99-15.27 51.85-11.98L51.85-11.98Q51.57-4.29 51.60 5.22Q51.64 14.73 51.85 20.88Q52.06 27.04 52.16 27.84Q52.27 28.65 52.55 29.48L52.55 29.48Q53.18 31.51 54.29 31.51L54.29 31.51L68.00 31.51Q69.82 31.51 69.82 27.67L69.82 27.67L72.54 27.67L72.54 34.45L42.55 34.45L42.55 31.51L43.60 31.51Q44.30 31.51 44.68 31.37Q45.06 31.23 45.27 30.64Q45.48 30.04 45.52 28.89Q45.55 27.74 45.62 25.71Z"/><path fill="#000000" opacity="1" d="M70.69-5.93Q69.89-6.39 68.91-6.39Q67.93-6.39 67.09-5.90L67.09-5.90Q66.25-5.48 65.69-4.71L65.69-4.71Q64.43-3.10 64.50-0.93L64.50-0.93L64.50 14.59Q64.50 16.83 65.80 18.44Q67.09 20.05 68.91 20.05Q70.73 20.05 71.98 18.37Q73.24 16.69 73.24 14.59L73.24 14.59L73.24-0.93Q73.24-3.10 72.37-4.29Q71.50-5.48 70.69-5.93ZM68.91-9.32L68.91-9.32Q71.29-9.32 73.24-8.13L73.24-8.13Q75.20-7.01 76.74-5.06L76.74-5.06Q79.96-0.93 80.03 4.52L80.03 4.52L80.03 9.14Q79.96 14.52 76.74 18.72L76.74 18.72Q73.45 22.91 68.91 22.98L68.91 22.98Q64.29 22.98 60.94 18.79L60.94 18.79Q57.72 14.80 57.79 9.14L57.79 9.14L57.79 4.52Q57.72-1.14 60.94-5.13L60.94-5.13Q64.29-9.32 68.91-9.32Z"/><path fill="#000000" opacity="1" d="M107.30 14.45L107.30 14.45Q111.21-0.30 111.21-3.59L111.21-3.59Q111.21-4.99 110.62-5.34Q110.02-5.69 108.55-5.69L108.55-5.69L108.55-8.62L117.22-8.62L117.22-5.69L116.66-5.69Q115.55-5.55 114.92-4.74Q114.29-3.94 113.83-2.47Q113.38-1.00 112.85 1.13Q112.33 3.26 111.49 6.06L111.49 6.06Q108.55 17.67 107.78 22.49L107.78 22.49L103.10 22.49Q102.54 19.63 98.83 6.76L98.83 6.76Q96.39 14.66 94.85 22.49L94.85 22.49L90.23 22.49Q89.95 21.02 88.77 16.65Q87.58 12.28 86.74 9.35L86.74 9.35Q85.90 6.41 85.20 3.75L85.20 3.75Q83.52-2.26 83.00-3.66Q82.47-5.06 81.91-5.37Q81.35-5.69 80.17-5.69L80.17-5.69L80.17-8.62L92.68-8.62L92.68-5.69L91.91-5.69Q89.60-5.69 89.60-4.43L89.60-4.43Q89.60-4.29 89.74-3.73L89.74-3.73Q91.56 5.99 94.36 14.45L94.36 14.45Q97.23 5.92 98.42-3.73L98.42-3.73L102.61-3.73Q104.08 5.29 107.30 14.45Z"/></g><g transform="matrix(1 0 0 1 250.25 275.25980821476014)" style=""  ><path fill="#000000" opacity="1" d="M-99.79 4.54L-103.17 4.54L-103.17 3.99Q-102.58 3.96-102.38 3.82Q-102.18 3.69-102.00 3.24L-102.00 3.24Q-101.96 3.11-100.66-0.59L-100.66-0.59L-98.98-5.46L-97.16-5.46L-94.32 3.30Q-94.17 3.73-93.97 3.85Q-93.77 3.98-93.19 3.99L-93.19 3.99L-93.19 4.54L-97.75 4.54L-97.75 3.99L-96.92 3.90Q-96.51 3.86-96.67 3.38L-96.67 3.38L-97.42 0.98L-100.23 0.98Q-100.80 2.88-100.92 3.40L-100.92 3.40Q-100.99 3.63-100.94 3.77Q-100.89 3.90-100.66 3.92L-100.66 3.92L-99.79 3.99L-99.79 4.54ZM-98.82-3.45L-99.99 0.29L-97.65 0.29L-98.78-3.45L-98.82-3.45Z"/><path fill="#000000" opacity="1" d="M-88.15 4.54L-92.99 4.54L-92.99 3.99Q-92.21 3.96-92.02 3.82Q-91.84 3.69-91.84 3.14L-91.84 3.14L-91.84-4.06Q-91.84-4.61-92.02-4.74Q-92.21-4.88-92.99-4.91L-92.99-4.91L-92.99-5.46L-88.51-5.46Q-86.58-5.46-85.69-4.91L-85.69-4.91Q-84.46-4.16-84.46-2.53L-84.46-2.53Q-84.46-0.95-85.57-0.16L-85.57-0.16Q-86.58 0.57-88.67 0.57L-88.67 0.57L-89.53 0.57L-89.53 3.14Q-89.53 3.69-89.32 3.82Q-89.10 3.96-88.15 4.02L-88.15 4.02L-88.15 4.54ZM-89.53-4.26L-89.53-0.72Q-89.53-0.33-89.36-0.21Q-89.19-0.10-88.72-0.10L-88.72-0.10Q-87.73-0.10-87.31-0.80Q-86.89-1.50-86.89-2.48L-86.89-2.48Q-86.89-3.65-87.39-4.22Q-87.88-4.80-88.68-4.80L-88.68-4.80Q-89.21-4.80-89.37-4.69Q-89.53-4.58-89.53-4.26L-89.53-4.26Z"/><path fill="#000000" opacity="1" d="M-79.00 4.54L-83.59 4.54L-83.59 3.99Q-82.81 3.96-82.63 3.82Q-82.45 3.69-82.45 3.14L-82.45 3.14L-82.45-4.06Q-82.45-4.61-82.63-4.74Q-82.81-4.88-83.59-4.91L-83.59-4.91L-83.59-5.46L-79.00-5.46L-79.00-4.91Q-79.78-4.88-79.96-4.74Q-80.14-4.61-80.14-4.06L-80.14-4.06L-80.14-0.65L-78.62-2.40Q-78.04-3.05-76.95-4.45L-76.95-4.45Q-76.66-4.81-77.03-4.85L-77.03-4.85L-77.64-4.94L-77.64-5.46L-73.71-5.46L-73.71-4.94Q-74.33-4.88-74.65-4.77Q-74.97-4.65-75.37-4.35L-75.37-4.35Q-75.73-4.07-76.14-3.70Q-76.56-3.32-76.75-3.13Q-76.95-2.93-77.54-2.30Q-78.13-1.67-78.28-1.52L-78.28-1.52Q-76.70 1.11-74.87 3.21L-74.87 3.21Q-74.23 3.93-73.83 4.03L-73.83 4.03L-73.68 4.08L-73.68 4.63L-74.66 4.60Q-76.02 4.55-76.72 4.20Q-77.41 3.85-78.13 2.82L-78.13 2.82Q-79.34 1.09-80.11-0.36L-80.11-0.36L-80.14-0.36L-80.14 3.14Q-80.14 3.69-79.96 3.82Q-79.78 3.96-79.00 3.99L-79.00 3.99L-79.00 4.54Z"/><path fill="#000000" opacity="1" d="M-68.78 4.54L-73.38 4.54L-73.38 3.99Q-72.60 3.96-72.42 3.82Q-72.24 3.69-72.24 3.14L-72.24 3.14L-72.24-4.06Q-72.24-4.61-72.42-4.74Q-72.60-4.88-73.38-4.91L-73.38-4.91L-73.38-5.46L-68.78-5.46L-68.78-4.91Q-69.56-4.88-69.74-4.74Q-69.92-4.61-69.92-4.06L-69.92-4.06L-69.92 3.14Q-69.92 3.69-69.74 3.82Q-69.56 3.96-68.78 3.99L-68.78 3.99L-68.78 4.54Z"/><path fill="#000000" opacity="1" d=""/><path fill="#000000" opacity="1" d="M-60.20 4.54L-64.79 4.54L-64.79 3.99Q-64.01 3.96-63.83 3.82Q-63.65 3.69-63.65 3.14L-63.65 3.14L-63.65-4.06Q-63.65-4.61-63.83-4.74Q-64.01-4.88-64.79-4.91L-64.79-4.91L-64.79-5.46L-60.20-5.46L-60.20-4.91Q-60.98-4.88-61.16-4.74Q-61.34-4.61-61.34-4.06L-61.34-4.06L-61.34-1.08L-57.54-1.08L-57.54-4.06Q-57.54-4.61-57.72-4.74Q-57.90-4.88-58.68-4.91L-58.68-4.91L-58.68-5.46L-54.09-5.46L-54.09-4.91Q-54.87-4.88-55.05-4.74Q-55.23-4.61-55.23-4.06L-55.23-4.06L-55.23 3.14Q-55.23 3.69-55.05 3.82Q-54.87 3.96-54.09 3.99L-54.09 3.99L-54.09 4.54L-58.68 4.54L-58.68 3.99Q-57.90 3.96-57.72 3.82Q-57.54 3.69-57.54 3.14L-57.54 3.14L-57.54-0.39L-61.34-0.39L-61.34 3.14Q-61.34 3.69-61.16 3.82Q-60.98 3.96-60.20 3.99L-60.20 3.99L-60.20 4.54Z"/><path fill="#000000" opacity="1" d="M-50.63 4.54L-54.01 4.54L-54.01 3.99Q-53.42 3.96-53.22 3.82Q-53.02 3.69-52.84 3.24L-52.84 3.24Q-52.80 3.11-51.50-0.59L-51.50-0.59L-49.82-5.46L-48.00-5.46L-45.16 3.30Q-45.01 3.73-44.81 3.85Q-44.61 3.98-44.03 3.99L-44.03 3.99L-44.03 4.54L-48.60 4.54L-48.60 3.99L-47.76 3.90Q-47.35 3.86-47.51 3.38L-47.51 3.38L-48.26 0.98L-51.07 0.98Q-51.64 2.88-51.76 3.40L-51.76 3.40Q-51.83 3.63-51.78 3.77Q-51.73 3.90-51.50 3.92L-51.50 3.92L-50.63 3.99L-50.63 4.54ZM-49.66-3.45L-50.84 0.29L-48.49 0.29L-49.62-3.45L-49.66-3.45Z"/><path fill="#000000" opacity="1" d="M-39.23 4.54L-43.83 4.54L-43.83 3.99Q-43.05 3.96-42.87 3.82Q-42.69 3.69-42.69 3.14L-42.69 3.14L-42.69-4.06Q-42.69-4.61-42.87-4.74Q-43.05-4.88-43.83-4.91L-43.83-4.91L-43.83-5.46L-38.81-5.46Q-36.89-5.46-36.02-4.71L-36.02-4.71Q-35.30-4.04-35.30-2.87L-35.30-2.87Q-35.30-1.93-35.98-1.28Q-36.66-0.63-37.74-0.49L-37.74-0.49L-37.74-0.46Q-36.73-0.20-36.35 0.38Q-35.97 0.97-35.78 2.03L-35.78 2.03Q-35.58 3.17-35.07 3.67L-35.07 3.67Q-34.77 3.98-34.39 3.99L-34.39 3.99L-34.39 4.54L-35.46 4.54Q-36.59 4.54-37.14 4.22Q-37.69 3.90-37.95 3.09L-37.95 3.09Q-38.05 2.76-38.13 2.39Q-38.22 2.01-38.30 1.61Q-38.38 1.22-38.41 1.07L-38.41 1.07Q-38.65-0.06-39.71-0.06L-39.71-0.06L-40.37-0.06L-40.37 3.14Q-40.37 3.69-40.19 3.82Q-40.01 3.96-39.23 3.99L-39.23 3.99L-39.23 4.54ZM-40.37-4.23L-40.37-0.72L-39.65-0.72Q-37.73-0.72-37.73-2.79L-37.73-2.79Q-37.73-4.80-39.45-4.80L-39.45-4.80Q-40.01-4.80-40.19-4.67Q-40.37-4.55-40.37-4.23L-40.37-4.23Z"/><path fill="#000000" opacity="1" d=""/><path fill="#000000" opacity="1" d="M-31.21 6.19L-31.30 5.74Q-30.59 5.51-30.19 5.06L-30.19 5.06Q-29.62 4.42-29.62 2.43L-29.62 2.43L-29.62-4.06Q-29.62-4.61-29.80-4.74Q-29.98-4.88-30.76-4.91L-30.76-4.91L-30.76-5.46L-26.17-5.46L-26.17-4.91Q-26.95-4.88-27.13-4.74Q-27.31-4.61-27.31-4.06L-27.31-4.06L-27.31 2.47Q-27.31 3.74-27.66 4.53Q-28.00 5.32-28.81 5.71L-28.81 5.71Q-29.88 6.22-31.21 6.19L-31.21 6.19Z"/><path fill="#000000" opacity="1" d="M-22.83 4.54L-26.21 4.54L-26.21 3.99Q-25.62 3.96-25.42 3.82Q-25.22 3.69-25.04 3.24L-25.04 3.24Q-25.00 3.11-23.70-0.59L-23.70-0.59L-22.02-5.46L-20.20-5.46L-17.35 3.30Q-17.21 3.73-17.01 3.85Q-16.81 3.98-16.23 3.99L-16.23 3.99L-16.23 4.54L-20.79 4.54L-20.79 3.99L-19.96 3.90Q-19.55 3.86-19.71 3.38L-19.71 3.38L-20.46 0.98L-23.26 0.98Q-23.84 2.88-23.96 3.40L-23.96 3.40Q-24.03 3.63-23.98 3.77Q-23.93 3.90-23.70 3.92L-23.70 3.92L-22.83 3.99L-22.83 4.54ZM-21.86-3.45L-23.03 0.29L-20.69 0.29L-21.82-3.45L-21.86-3.45Z"/><path fill="#000000" opacity="1" d="M-11.43 4.54L-16.03 4.54L-16.03 3.99Q-15.24 3.96-15.06 3.82Q-14.88 3.69-14.88 3.14L-14.88 3.14L-14.88-4.06Q-14.88-4.61-15.06-4.74Q-15.24-4.88-16.03-4.91L-16.03-4.91L-16.03-5.46L-11.01-5.46Q-9.09-5.46-8.22-4.71L-8.22-4.71Q-7.50-4.04-7.50-2.87L-7.50-2.87Q-7.50-1.93-8.18-1.28Q-8.86-0.63-9.94-0.49L-9.94-0.49L-9.94-0.46Q-8.93-0.20-8.55 0.38Q-8.16 0.97-7.98 2.03L-7.98 2.03Q-7.77 3.17-7.27 3.67L-7.27 3.67Q-6.96 3.98-6.59 3.99L-6.59 3.99L-6.59 4.54L-7.66 4.54Q-8.79 4.54-9.33 4.22Q-9.88 3.90-10.14 3.09L-10.14 3.09Q-10.25 2.76-10.33 2.39Q-10.42 2.01-10.50 1.61Q-10.58 1.22-10.61 1.07L-10.61 1.07Q-10.85-0.06-11.91-0.06L-11.91-0.06L-12.57-0.06L-12.57 3.14Q-12.57 3.69-12.39 3.82Q-12.21 3.96-11.43 3.99L-11.43 3.99L-11.43 4.54ZM-12.57-4.23L-12.57-0.72L-11.85-0.72Q-9.93-0.72-9.93-2.79L-9.93-2.79Q-9.93-4.80-11.65-4.80L-11.65-4.80Q-12.21-4.80-12.39-4.67Q-12.57-4.55-12.57-4.23L-12.57-4.23Z"/><path fill="#000000" opacity="1" d="M-6.63-4.91L-6.63-4.91L-6.63-5.46L-2.12-5.46L-2.12-4.91Q-2.86-4.88-3.04-4.74Q-3.22-4.61-3.22-4.06L-3.22-4.06L-3.22 1.49Q-3.22 4.09-1.37 4.09Q0.48 4.09 0.48 1.49L0.48 1.49L0.48-4.06Q0.48-4.61 0.30-4.74Q0.12-4.88-0.62-4.91L-0.62-4.91L-0.62-5.46L3.89-5.46L3.89-4.91Q3.15-4.88 2.97-4.74Q2.79-4.61 2.79-4.06L2.79-4.06L2.79 1.29Q2.77 3.12 1.73 3.94Q0.69 4.76-1.37 4.76L-1.37 4.76Q-3.55 4.76-4.54 3.95Q-5.53 3.15-5.53 1.29L-5.53 1.29L-5.53-4.06Q-5.53-4.61-5.71-4.74Q-5.90-4.88-6.63-4.91Z"/><path fill="#000000" opacity="1" d="M9.38 4.54L4.78 4.54L4.78 3.99Q5.56 3.96 5.74 3.82Q5.92 3.69 5.92 3.14L5.92 3.14L5.92-4.06Q5.92-4.61 5.74-4.74Q5.56-4.88 4.78-4.91L4.78-4.91L4.78-5.46L9.80-5.46Q11.72-5.46 12.59-4.71L12.59-4.71Q13.31-4.04 13.31-2.87L13.31-2.87Q13.31-1.93 12.63-1.28Q11.95-0.63 10.87-0.49L10.87-0.49L10.87-0.46Q11.88-0.20 12.26 0.38Q12.64 0.97 12.83 2.03L12.83 2.03Q13.03 3.17 13.54 3.67L13.54 3.67Q13.84 3.98 14.22 3.99L14.22 3.99L14.22 4.54L13.15 4.54Q12.02 4.54 11.47 4.22Q10.92 3.90 10.66 3.09L10.66 3.09Q10.56 2.76 10.48 2.39Q10.39 2.01 10.31 1.61Q10.23 1.22 10.20 1.07L10.20 1.07Q9.96-0.06 8.90-0.06L8.90-0.06L8.24-0.06L8.24 3.14Q8.24 3.69 8.42 3.82Q8.60 3.96 9.38 3.99L9.38 3.99L9.38 4.54ZM8.24-4.23L8.24-0.72L8.96-0.72Q10.88-0.72 10.88-2.79L10.88-2.79Q10.88-4.80 9.16-4.80L9.16-4.80Q8.60-4.80 8.42-4.67Q8.24-4.55 8.24-4.23L8.24-4.23Z"/><path fill="#000000" opacity="1" d="M17.17 4.54L13.79 4.54L13.79 3.99Q14.38 3.96 14.58 3.82Q14.78 3.69 14.96 3.24L14.96 3.24Q15.00 3.11 16.30-0.59L16.30-0.59L17.98-5.46L19.80-5.46L22.64 3.30Q22.79 3.73 22.99 3.85Q23.19 3.98 23.77 3.99L23.77 3.99L23.77 4.54L19.20 4.54L19.20 3.99L20.04 3.90Q20.45 3.86 20.29 3.38L20.29 3.38L19.54 0.98L16.73 0.98Q16.16 2.88 16.04 3.40L16.04 3.40Q15.97 3.63 16.02 3.77Q16.07 3.90 16.30 3.92L16.30 3.92L17.17 3.99L17.17 4.54ZM18.13-3.45L16.96 0.29L19.31 0.29L18.18-3.45L18.13-3.45Z"/><path fill="#000000" opacity="1" d="M23.42-2.74L22.87-2.74L22.87-5.46L31.46-5.46L31.46-2.74L30.91-2.74Q30.75-3.22 30.68-3.41Q30.61-3.60 30.47-3.91Q30.33-4.22 30.21-4.33Q30.10-4.43 29.90-4.57Q29.71-4.71 29.47-4.75Q29.23-4.80 28.90-4.80L28.90-4.80L28.32-4.80L28.32 3.17Q28.32 3.57 28.44 3.74Q28.55 3.92 28.89 3.93L28.89 3.93L29.71 3.99L29.71 4.54L24.62 4.54L24.62 3.99L25.45 3.93Q25.78 3.92 25.89 3.74Q26.01 3.57 26.01 3.17L26.01 3.17L26.01-4.80L25.43-4.80Q24.51-4.80 24.17-4.39Q23.84-3.99 23.42-2.74L23.42-2.74Z"/><path fill="#000000" opacity="1" d="M31.31 6.95L30.88 6.53Q31.75 5.57 31.75 4.65L31.75 4.65Q31.75 4.31 31.46 3.82Q31.17 3.33 31.17 2.99L31.17 2.99Q31.17 2.56 31.45 2.25Q31.73 1.94 32.24 1.94L32.24 1.94Q32.82 1.94 33.19 2.39Q33.57 2.83 33.57 3.60L33.57 3.60Q33.57 5.13 31.31 6.95L31.31 6.95Z"/><path fill="#000000" opacity="1" d="M42.90 4.54L34.82 4.54L34.82 3.99Q35.60 3.96 35.79 3.82Q35.97 3.69 35.97 3.14L35.97 3.14L35.97-4.06Q35.97-4.61 35.79-4.74Q35.60-4.88 34.82-4.91L34.82-4.91L34.82-5.46L42.61-5.46L42.61-2.79L42.06-2.79Q41.88-3.41 41.74-3.72Q41.60-4.03 41.36-4.31Q41.12-4.59 40.77-4.69Q40.42-4.80 39.87-4.80L39.87-4.80L38.78-4.80Q38.48-4.80 38.38-4.69Q38.28-4.59 38.28-4.28L38.28-4.28L38.28-1.08L39.65-1.08Q40.32-1.08 40.56-1.33Q40.81-1.57 40.98-2.38L40.98-2.38L41.53-2.38L41.53 0.97L40.98 0.97Q40.81 0.16 40.56-0.08Q40.32-0.33 39.65-0.33L39.65-0.33L38.28-0.33L38.28 2.82Q38.28 3.48 38.64 3.68Q39.00 3.87 40.06 3.87L40.06 3.87Q40.47 3.87 40.79 3.82Q41.10 3.77 41.34 3.60Q41.59 3.43 41.73 3.30Q41.88 3.17 42.04 2.82Q42.19 2.47 42.27 2.26Q42.35 2.05 42.53 1.53L42.53 1.53L43.08 1.53L42.90 4.54Z"/><path fill="#000000" opacity="1" d="M48.51 4.54L43.91 4.54L43.91 3.99Q44.69 3.96 44.87 3.82Q45.06 3.69 45.06 3.14L45.06 3.14L45.06-4.06Q45.06-4.61 44.87-4.74Q44.69-4.88 43.91-4.91L43.91-4.91L43.91-5.46L48.51-5.46L48.51-4.91Q47.73-4.88 47.55-4.74Q47.37-4.61 47.37-4.06L47.37-4.06L47.37-0.65L48.88-2.40Q49.46-3.05 50.56-4.45L50.56-4.45Q50.85-4.81 50.47-4.85L50.47-4.85L49.87-4.94L49.87-5.46L53.80-5.46L53.80-4.94Q53.18-4.88 52.86-4.77Q52.54-4.65 52.14-4.35L52.14-4.35Q51.77-4.07 51.36-3.70Q50.95-3.32 50.76-3.13Q50.56-2.93 49.97-2.30Q49.38-1.67 49.23-1.52L49.23-1.52Q50.81 1.11 52.64 3.21L52.64 3.21Q53.28 3.93 53.68 4.03L53.68 4.03L53.83 4.08L53.83 4.63L52.84 4.60Q51.49 4.55 50.79 4.20Q50.10 3.85 49.38 2.82L49.38 2.82Q48.16 1.09 47.40-0.36L47.40-0.36L47.37-0.36L47.37 3.14Q47.37 3.69 47.55 3.82Q47.73 3.96 48.51 3.99L48.51 3.99L48.51 4.54Z"/><path fill="#000000" opacity="1" d=""/><path fill="#000000" opacity="1" d="M56.86 6.19L56.77 5.74Q57.48 5.51 57.89 5.06L57.89 5.06Q58.45 4.42 58.45 2.43L58.45 2.43L58.45-4.06Q58.45-4.61 58.27-4.74Q58.09-4.88 57.31-4.91L57.31-4.91L57.31-5.46L61.90-5.46L61.90-4.91Q61.12-4.88 60.94-4.74Q60.76-4.61 60.76-4.06L60.76-4.06L60.76 2.47Q60.76 3.74 60.42 4.53Q60.07 5.32 59.26 5.71L59.26 5.71Q58.19 6.22 56.86 6.19L56.86 6.19Z"/><path fill="#000000" opacity="1" d="M65.24 4.54L61.86 4.54L61.86 3.99Q62.45 3.96 62.66 3.82Q62.86 3.69 63.03 3.24L63.03 3.24Q63.07 3.11 64.37-0.59L64.37-0.59L66.05-5.46L67.87-5.46L70.72 3.30Q70.86 3.73 71.07 3.85Q71.27 3.98 71.85 3.99L71.85 3.99L71.85 4.54L67.28 4.54L67.28 3.99L68.12 3.90Q68.52 3.86 68.36 3.38L68.36 3.38L67.61 0.98L64.81 0.98Q64.23 2.88 64.11 3.40L64.11 3.40Q64.04 3.63 64.09 3.77Q64.14 3.90 64.37 3.92L64.37 3.92L65.24 3.99L65.24 4.54ZM66.21-3.45L65.04 0.29L67.38 0.29L66.25-3.45L66.21-3.45Z"/><path fill="#000000" opacity="1" d="M71.92-0.39L71.92-0.39Q71.92-1.07 72.03-1.71Q72.13-2.35 72.48-3.10Q72.83-3.86 73.39-4.40Q73.96-4.94 74.96-5.31Q75.96-5.68 77.29-5.68L77.29-5.68Q79.42-5.68 80.60-5.04L80.60-5.04L80.60-2.41L80.05-2.41Q79.88-2.95 79.68-3.35Q79.48-3.75 79.16-4.17Q78.85-4.58 78.40-4.80Q77.94-5.01 77.37-5.01L77.37-5.01Q76.76-5.01 76.27-4.79Q75.79-4.56 75.49-4.18Q75.18-3.80 74.97-3.35Q74.76-2.90 74.66-2.38Q74.56-1.85 74.52-1.42Q74.48-1.00 74.48-0.58L74.48-0.58Q74.48-0.21 74.50 0.15Q74.53 0.51 74.61 1.09Q74.69 1.68 74.88 2.16Q75.07 2.65 75.36 3.11Q75.65 3.57 76.13 3.83Q76.61 4.09 77.24 4.09L77.24 4.09Q77.97 4.09 78.20 3.96Q78.43 3.83 78.43 3.44L78.43 3.44L78.43 1.40Q78.43 0.87 78.24 0.74Q78.04 0.61 77.19 0.55L77.19 0.55L77.19 0.00L81.56 0.00L81.56 0.55Q81.02 0.61 80.88 0.74Q80.75 0.87 80.75 1.37L80.75 1.37L80.75 4.06Q79.19 4.76 77.24 4.76L77.24 4.76Q75.05 4.76 73.87 3.96L73.87 3.96Q71.92 2.65 71.92-0.39Z"/><path fill="#000000" opacity="1" d="M84.78 4.54L81.40 4.54L81.40 3.99Q81.99 3.96 82.19 3.82Q82.39 3.69 82.57 3.24L82.57 3.24Q82.61 3.11 83.91-0.59L83.91-0.59L85.59-5.46L87.41-5.46L90.25 3.30Q90.40 3.73 90.60 3.85Q90.80 3.98 91.38 3.99L91.38 3.99L91.38 4.54L86.82 4.54L86.82 3.99L87.65 3.90Q88.06 3.86 87.90 3.38L87.90 3.38L87.15 0.98L84.34 0.98Q83.77 2.88 83.65 3.40L83.65 3.40Q83.58 3.63 83.63 3.77Q83.68 3.90 83.91 3.92L83.91 3.92L84.78 3.99L84.78 4.54ZM85.75-3.45L84.58 0.29L86.92 0.29L85.79-3.45L85.75-3.45Z"/><path fill="#000000" opacity="1" d="M96.18 4.54L91.58 4.54L91.58 3.99Q92.36 3.96 92.55 3.82Q92.73 3.69 92.73 3.14L92.73 3.14L92.73-4.06Q92.73-4.61 92.55-4.74Q92.36-4.88 91.58-4.91L91.58-4.91L91.58-5.46L96.18-5.46L96.18-4.91Q95.40-4.88 95.22-4.74Q95.04-4.61 95.04-4.06L95.04-4.06L95.04-1.08L98.84-1.08L98.84-4.06Q98.84-4.61 98.66-4.74Q98.48-4.88 97.70-4.91L97.70-4.91L97.70-5.46L102.29-5.46L102.29-4.91Q101.51-4.88 101.33-4.74Q101.15-4.61 101.15-4.06L101.15-4.06L101.15 3.14Q101.15 3.69 101.33 3.82Q101.51 3.96 102.29 3.99L102.29 3.99L102.29 4.54L97.70 4.54L97.70 3.99Q98.48 3.96 98.66 3.82Q98.84 3.69 98.84 3.14L98.84 3.14L98.84-0.39L95.04-0.39L95.04 3.14Q95.04 3.69 95.22 3.82Q95.40 3.96 96.18 3.99L96.18 3.99L96.18 4.54Z"/></g></svg>