<?xml version="1.0" encoding="UTF-8" standalone="no" ?>
<!DOCTYPE svg PUBLIC "-//W3C//DTD SVG 1.1//EN" "http://www.w3.org/Graphics/SVG/1.1/DTD/svg11.dtd">
<svg xmlns="http://www.w3.org/2000/svg" xmlns:xlink="http://www.w3.org/1999/xlink" version="1.1" width="500" height="500" viewBox="0 0 500 500" xml:space="preserve">
<desc>Created with Fabric.js 3.6.3</desc>
<defs>
</defs>
<rect x="0" y="0" width="100%" height="100%" fill="#ffffff"></rect>
<g transform="matrix(1 0 0 1 255.09188663851126 305.5130497665003)" style=""  ><path fill="#000000" opacity="1" d="M-71.77 28.21L-71.77 30.84L-75.84 30.84Q-81.41 30.84-84.73 23.58L-84.73 23.58Q-85.98 19.95-87.17 16.19Q-88.36 12.44-89.80 9.28Q-91.24 6.11-93.08 3.99Q-94.93 1.86-97.43 1.54L-97.43 1.54Q-97.43 2.42-97.40 4.39Q-97.37 6.36-97.34 8.90Q-97.31 11.44-97.25 14.22Q-97.18 17.01-97.18 19.51L-97.18 19.51Q-97.12 24.64-97.00 26.11Q-96.87 27.59-96.34 27.93Q-95.81 28.27-95.21 28.27Q-94.62 28.27-94.37 28.21L-94.37 28.21L-94.37 30.84L-105.57 30.84L-105.57 28.21L-105.01 28.21Q-103.94 28.21-103.51 27.90Q-103.07 27.59-102.97 26.83Q-102.88 26.08-102.85 24.52Q-102.82 22.95-102.79 20.67Q-102.75 18.38-102.72 15.60Q-102.69 12.81-102.66 9.96Q-102.63 7.12-102.60 4.46Q-102.57 1.80-102.57-1.71Q-102.57-5.22-102.60-8.56Q-102.63-11.91-102.69-14.10Q-102.75-16.30-102.91-17.48Q-103.07-18.67-103.32-19.27Q-103.57-19.86-103.94-19.96Q-104.32-20.05-104.63-20.05L-104.63-20.05L-105.20-20.05Q-105.45-20.05-105.57-19.99L-105.57-19.99L-105.57-22.62L-94.37-22.62L-94.37-19.99Q-94.49-20.05-95.12-20.05Q-95.74-20.05-96.28-19.55Q-96.81-19.05-97.06-17.05L-97.06-17.05Q-97.43-14.04-97.43-0.15L-97.43-0.15Q-94.05-0.27-92.74-6.03L-92.74-6.03Q-92.11-8.72-91.61-11.66Q-91.11-14.61-90.23-17.05Q-89.36-19.49-87.95-21.05Q-86.54-22.62-84.10-22.62L-84.10-22.62L-79.97-22.62L-79.97-19.99L-82.41-19.99Q-84.91-19.99-85.85-15.79L-85.85-15.79Q-86.42-13.23-86.95-10.76Q-87.48-8.28-88.23-6.15L-88.23-6.15Q-89.92-1.33-93.11 0.29L-93.11 0.29Q-87.17 1.86-83.85 9.18L-83.85 9.18Q-82.91 12.19-81.94 15.54Q-80.97 18.88-79.81 21.70Q-78.65 24.52-77.28 26.36Q-75.90 28.21-74.15 28.21L-74.15 28.21L-71.77 28.21Z"/><path fill="#000000" opacity="1" d="M-45.79 17.51L-45.79 20.14L-57.00 20.14L-57.00 17.51L-56.12 17.51Q-55.43 17.51-55.05 17.38L-55.05 17.38Q-54.68 17.13-54.49 16.51L-54.49 16.51Q-54.24 15.63-54.24 11.00L-54.24 11.00L-54.24-1.08Q-54.43-2.96-55.46-4.40Q-56.49-5.84-58.37-5.84Q-60.25-5.84-61.41-4.37Q-62.57-2.90-62.57-0.96L-62.57-0.96L-62.57 11.50Q-62.57 14.88-62.10 16.19Q-61.63 17.51-59.69 17.51L-59.69 17.51L-59.69 20.14L-70.89 20.14L-70.89 17.51L-69.95 17.51Q-68.39 17.51-68.26 15.69L-68.26 15.69Q-67.89 7.68-67.89-0.27L-67.89-0.27Q-67.89-13.10-68.26-20.11L-68.26-20.11Q-68.39-21.37-69.01-21.62Q-69.64-21.87-70.89-21.87L-70.89-21.87L-70.89-24.50L-62.25-24.50Q-62.25-19.36-62.50-6.09L-62.50-6.09Q-60.94-8.41-58.31-8.41Q-55.68-8.41-53.96-7.75Q-52.24-7.09-50.99-5.90L-50.99-5.90Q-48.48-3.53-48.54 0.17L-48.54 0.17L-48.54 7.99Q-48.54 14.57-48.11 15.85Q-47.67 17.13-47.14 17.32Q-46.60 17.51-45.79 17.51L-45.79 17.51Z"/><path fill="#000000" opacity="1" d="M-38.22 12.94L-38.22 12.94Q-38.22 16.63-34.08 16.63L-34.08 16.63Q-32.46 16.63-31.36 15.32Q-30.27 14.00-30.27 12.12L-30.27 12.12Q-30.27 8.12-30.39 3.86L-30.39 3.86Q-31.33 5.24-32.68 6.18Q-34.02 7.12-35.24 8.02Q-36.46 8.93-37.34 10.06Q-38.22 11.18-38.22 12.94ZM-36.28 20.70L-36.28 20.70Q-44.54 20.70-44.54 13.38L-44.54 13.38Q-44.54 9.68-41.53 8.12L-41.53 8.12Q-40.03 7.37-38.43 6.68Q-36.84 5.99-35.40 5.24L-35.40 5.24Q-31.83 3.36-30.52 1.67L-30.52 1.67Q-30.64-2.71-31.17-3.87Q-31.71-5.03-32.39-5.34Q-33.08-5.65-34.15-5.65L-34.15-5.65Q-37.84-5.65-37.84-3.96L-37.84-3.96Q-35.27-3.02-35.27 0.04L-35.27 0.04Q-35.27 1.67-36.34 2.92Q-37.40 4.17-39.00 4.17Q-40.59 4.17-41.66 2.98Q-42.72 1.80-42.72-0.05Q-42.72-1.90-42.03-3.46Q-41.35-5.03-40.09-6.09L-40.09-6.09Q-37.59-8.28-33.71-8.28L-33.71-8.28Q-31.46-8.28-29.80-7.72Q-28.14-7.16-27.07-5.47L-27.07-5.47Q-25.01-2.21-25.01 7.49L-25.01 7.49Q-25.01 12.19-24.79 14.78Q-24.57 17.38-23.76 17.38L-23.76 17.38Q-23.38 17.38-23.10 17.01Q-22.82 16.63-22.82 15.94L-22.82 15.94L-22.82 14.00L-20.44 14.00L-20.44 16.13Q-20.44 18.01-21.69 19.32Q-22.94 20.64-24.88 20.64L-24.88 20.64Q-28.01 20.64-29.39 17.82L-29.39 17.82Q-33.08 20.70-36.28 20.70Z"/><path fill="#000000" opacity="1" d="M0.53-0.27L0.53-0.27Q0.53 1.73-0.59 2.95Q-1.72 4.17-3.35 4.17Q-4.98 4.17-5.98 2.92Q-6.98 1.67-6.98 0.01Q-6.98-1.65-6.20-2.81Q-5.41-3.96-3.97-3.96L-3.97-3.96Q-3.97-5.65-6.35-5.65Q-8.73-5.65-10.02-2.40Q-11.30 0.86-11.30 5.24L-11.30 5.24Q-11.30 13.00-10.99 14.94Q-10.67 16.88-10.30 17.19Q-9.92 17.51-8.29 17.51L-8.29 17.51L-8.29 20.14L-19.50 20.14L-19.50 17.51L-18.62 17.51Q-16.74 17.51-16.56 12.81L-16.56 12.81Q-16.49 11.37-16.49 8.56L-16.49 8.56Q-16.49-1.52-17.00-4.28L-17.00-4.28Q-17.12-4.90-17.87-5.00Q-18.62-5.09-19.50-5.09L-19.50-5.09L-19.50-7.72L-11.67-7.72L-11.67-4.46Q-10.67-8.28-6.42-8.28L-6.42-8.28Q-2.97-8.28-1.22-6.41Q0.53-4.53 0.53-0.27Z"/><path fill="#000000" opacity="1" d="M12.43 17.51L12.43 20.14L1.28 20.14L1.28 17.51L2.16 17.51Q2.91 17.51 3.35 16.94Q3.79 16.38 3.97 14.69L3.97 14.69Q4.29 11.87 4.29 1.36L4.29 1.36Q4.29-1.59 3.79-3.21Q3.29-4.84 1.28-5.09L1.28-5.09L1.28-7.72L9.92-7.72Q9.92-0.02 9.73 3.36Q9.55 6.74 9.55 8.37Q9.55 10.00 9.64 12.06Q9.73 14.13 9.98 15.38L9.98 15.38Q10.49 17.51 12.43 17.51L12.43 17.51ZM2.91-18.71Q2.91-20.36 3.97-21.62Q5.04-22.87 6.64-22.87Q8.23-22.87 9.30-21.62Q10.36-20.36 10.36-18.71Q10.36-17.05 9.30-15.79Q8.23-14.54 6.64-14.54Q5.04-14.54 3.97-15.79Q2.91-17.05 2.91-18.71Z"/><path fill="#000000" opacity="1" d="M28.01 13.06L28.01-0.83Q28.01-2.77 27.23-3.84Q26.45-4.90 25.73-5.31Q25.01-5.72 24.13-5.72Q23.26-5.72 22.57-5.31Q21.88-4.90 21.38-4.21L21.38-4.21Q20.31-2.77 20.31-0.83L20.31-0.83L20.31 13.06Q20.31 15.07 21.38 16.51Q22.44 17.95 24.10 17.95Q25.76 17.95 26.89 16.44Q28.01 14.94 28.01 13.06L28.01 13.06ZM33.83-24.50L33.83-21.99L33.65 0.17Q33.65 11.81 33.90 14.31Q34.15 16.82 34.52 17.19L34.52 17.19Q34.84 17.57 35.46 17.57L35.46 17.57L36.34 17.57Q36.59 17.57 36.65 17.51L36.65 17.51L36.65 20.14Q33.33 20.01 32.46 19.64Q31.58 19.26 31.14 18.76Q30.70 18.26 30.20 17.38L30.20 17.38Q29.08 18.76 27.45 19.67Q25.82 20.57 23.88 20.57Q21.94 20.57 20.16 19.54Q18.37 18.51 17.06 16.76L17.06 16.76Q14.30 13.13 14.30 8.18L14.30 8.18L14.30 4.05Q14.30-0.90 17.12-4.53L17.12-4.53Q20.00-8.28 24.13-8.35L24.13-8.35Q26.64-8.35 28.45-5.72L28.45-5.72Q28.39-6.66 28.39-8.16Q28.39-9.66 28.33-11.54L28.33-11.54Q28.14-17.23 27.82-20.11L27.82-20.11Q27.64-21.93 26.01-21.93L26.01-21.93L25.76-21.93Q25.57-21.93 25.20-21.87L25.20-21.87L25.20-24.50L33.83-24.50Z"/><path fill="#000000" opacity="1" d="M40.84 23.02L40.84 23.02L41.10 2.05L41.10-2.34Q41.10-3.65 41.06-5.37Q41.03-7.09 41.00-9.03Q40.97-10.97 40.91-12.79Q40.84-14.61 40.81-16.05Q40.78-17.48 40.69-18.49Q40.59-19.49 40.03-19.74Q39.47-19.99 38.09-19.99L38.09-19.99L38.09-22.62L49.30-22.62L49.30-19.99L48.54-20.05Q47.04-20.05 46.73-18.24L46.73-18.24Q46.73-17.92 46.64-15.79Q46.54-13.67 46.42-10.72L46.42-10.72Q46.17-3.84 46.20 4.67Q46.23 13.19 46.42 18.70Q46.60 24.21 46.70 24.93Q46.79 25.64 47.04 26.40L47.04 26.40Q47.61 28.21 48.61 28.21L48.61 28.21L60.88 28.21Q62.50 28.21 62.50 24.77L62.50 24.77L64.95 24.77L64.95 30.84L38.09 30.84L38.09 28.21L39.03 28.21Q39.66 28.21 40.00 28.09Q40.34 27.96 40.53 27.43Q40.72 26.90 40.75 25.86Q40.78 24.83 40.84 23.02Z"/><path fill="#000000" opacity="1" d="M63.29-5.31Q62.57-5.72 61.69-5.72Q60.81-5.72 60.06-5.28L60.06-5.28Q59.31-4.90 58.81-4.21L58.81-4.21Q57.68-2.77 57.75-0.83L57.75-0.83L57.75 13.06Q57.75 15.07 58.90 16.51Q60.06 17.95 61.69 17.95Q63.32 17.95 64.44 16.44Q65.57 14.94 65.57 13.06L65.57 13.06L65.57-0.83Q65.57-2.77 64.79-3.84Q64.01-4.90 63.29-5.31ZM61.69-8.35L61.69-8.35Q63.82-8.35 65.57-7.28L65.57-7.28Q67.32-6.28 68.70-4.53L68.70-4.53Q71.58-0.83 71.64 4.05L71.64 4.05L71.64 8.18Q71.58 13.00 68.70 16.76L68.70 16.76Q65.76 20.51 61.69 20.57L61.69 20.57Q57.56 20.57 54.55 16.82L54.55 16.82Q51.67 13.25 51.74 8.18L51.74 8.18L51.74 4.05Q51.67-1.02 54.55-4.59L54.55-4.59Q57.56-8.35 61.69-8.35Z"/><path fill="#000000" opacity="1" d="M96.06 12.94L96.06 12.94Q99.56-0.27 99.56-3.21L99.56-3.21Q99.56-4.46 99.03-4.78Q98.50-5.09 97.18-5.09L97.18-5.09L97.18-7.72L104.94-7.72L104.94-5.09L104.44-5.09Q103.44-4.97 102.88-4.25Q102.32-3.53 101.91-2.21Q101.50-0.90 101.03 1.01Q100.56 2.92 99.81 5.43L99.81 5.43Q97.18 15.82 96.49 20.14L96.49 20.14L92.30 20.14Q91.80 17.57 88.48 6.05L88.48 6.05Q86.29 13.13 84.91 20.14L84.91 20.14L80.78 20.14Q80.53 18.82 79.47 14.91Q78.40 11.00 77.65 8.37L77.65 8.37Q76.90 5.74 76.28 3.36L76.28 3.36Q74.77-2.02 74.30-3.28Q73.83-4.53 73.33-4.81Q72.83-5.09 71.77-5.09L71.77-5.09L71.77-7.72L82.97-7.72L82.97-5.09L82.28-5.09Q80.22-5.09 80.22-3.96L80.22-3.96Q80.22-3.84 80.34-3.34L80.34-3.34Q81.97 5.36 84.48 12.94L84.48 12.94Q87.04 5.30 88.11-3.34L88.11-3.34L91.86-3.34Q93.18 4.74 96.06 12.94Z"/></g><g transform="matrix(1.1726850411618475 0 0 1.1726850411618475 259.4401860512035 196.94737445994596)"  >
<g style=""   >
		<g transform="matrix(1.1204384654154556 0 0 1.1204384654154556 -10.091012139927798 11.67006888483489)"  >
<circle style="stroke: none; stroke-width: 0; stroke-dasharray: none; stroke-linecap: butt; stroke-dashoffset: 0; stroke-linejoin: miter; stroke-miterlimit: 4; fill: rgb(0,76,242); fill-rule: evenodd; opacity: 0.8;"  cx="0" cy="0" r="47.0059" />
</g>
		<g transform="matrix(0.7023644111559573 0 0 0.7023644111559573 20.99094185883972 -10.340111964735698)"  >
<circle style="stroke: none; stroke-width: 0; stroke-dasharray: none; stroke-linecap: butt; stroke-dashoffset: 0; stroke-linejoin: miter; stroke-miterlimit: 4; fill: rgb(251,165,54); fill-rule: evenodd; opacity: 0.8;"  cx="0" cy="0" r="47.0059" />
</g>
		<g transform="matrix(0.1640206609377625 0 0 0.1640206609377625 0.9140782848575064 -56.627348560332905)"  >
<circle style="stroke: none; stroke-width: 0; stroke-dasharray: none; stroke-linecap: butt; stroke-dashoffset: 0; stroke-linejoin: miter; stroke-miterlimit: 4; fill: rgb(255,83,98); fill-rule: evenodd; opacity: 0.7;"  cx="0" cy="0" r="47.0059" />
</g>
		<g transform="matrix(0.8863169950301366 0 0 0.8863169950301366 -25.328172179880866 -1.6932552024043588)"  >
<circle style="stroke: none; stroke-width: 0; stroke-dasharray: none; stroke-linecap: butt; stroke-dashoffset: 0; stroke-linejoin: miter; stroke-miterlimit: 4; fill: rgb(99,25,195); fill-rule: evenodd; opacity: 0.8;"  cx="0" cy="0" r="47.0059" />
</g>
		<g transform="matrix(0.6470430043256643 0 0 0.6470430043256643 13.674042016607682 31.322016071951435)"  >
<circle style="stroke: none; stroke-width: 0; stroke-dasharray: none; stroke-linecap: butt; stroke-dashoffset: 0; stroke-linejoin: miter; stroke-miterlimit: 4; fill: rgb(255,83,98); fill-rule: evenodd; opacity: 0.8;"  cx="0" cy="0" r="47.0059" />
</g>
		<g transform="matrix(0.07846229053274655 0 0 -0.07846229053274655 -76.90763257612397 11.670068884834874)"  >
<circle style="stroke: none; stroke-width: 0; stroke-dasharray: none; stroke-linecap: butt; stroke-dashoffset: 0; stroke-linejoin: miter; stroke-miterlimit: 4; fill: rgb(99,25,195); fill-rule: evenodd; opacity: 0.7;"  cx="0" cy="0" r="47.0059" />
</g>
		<g transform="matrix(0.08973911094761094 0 0 0.08973911094761093 55.15345252129921 21.98044018813328)"  >
<circle style="stroke: none; stroke-width: 0; stroke-dasharray: none; stroke-linecap: butt; stroke-dashoffset: 0; stroke-linejoin: miter; stroke-miterlimit: 4; fill: rgb(255,83,98); fill-rule: evenodd; opacity: 0.7;"  cx="0" cy="0" r="47.0059" />
</g>
		<g transform="matrix(0.19007688396989056 0 0 0.19007688396989056 71.66108815847704 6.423524467187805)"  >
<circle style="stroke: none; stroke-width: 0; stroke-dasharray: none; stroke-linecap: butt; stroke-dashoffset: 0; stroke-linejoin: miter; stroke-miterlimit: 4; fill: rgb(0,76,242); fill-rule: evenodd; opacity: 0.7;"  cx="0" cy="0" r="47.0059" />
</g>
		<g transform="matrix(0.09873329263926167 0 0 0.09873329263926167 -61.34997199317024 55.69043058397597)"  >
<circle style="stroke: none; stroke-width: 0; stroke-dasharray: none; stroke-linecap: butt; stroke-dashoffset: 0; stroke-linejoin: miter; stroke-miterlimit: 4; fill: rgb(251,165,54); fill-rule: evenodd; opacity: 0.7;"  cx="0" cy="0" r="47.0059" />
</g>
</g>
</g>
<g transform="matrix(1 0 0 1 255.09188663851128 345.39959810744443)" style=""  ><path fill="#000000" opacity="1" d="M-89.43 4.07L-92.46 4.07L-92.46 3.58Q-91.93 3.55-91.75 3.43Q-91.57 3.30-91.41 2.90L-91.41 2.90Q-91.38 2.79-90.21-0.53L-90.21-0.53L-88.71-4.89L-87.08-4.89L-84.52 2.95Q-84.40 3.34-84.21 3.45Q-84.03 3.56-83.51 3.58L-83.51 3.58L-83.51 4.07L-87.61 4.07L-87.61 3.58L-86.86 3.50Q-86.49 3.46-86.64 3.03L-86.64 3.03L-87.31 0.88L-89.82 0.88Q-90.34 2.58-90.44 3.05L-90.44 3.05Q-90.51 3.25-90.46 3.38Q-90.42 3.50-90.21 3.51L-90.21 3.51L-89.43 3.58L-89.43 4.07ZM-88.57-3.09L-89.61 0.26L-87.52 0.26L-88.53-3.09L-88.57-3.09Z"/><path fill="#000000" opacity="1" d="M-79.00 4.07L-83.33 4.07L-83.33 3.58Q-82.63 3.55-82.47 3.43Q-82.31 3.30-82.31 2.81L-82.31 2.81L-82.31-3.64Q-82.31-4.13-82.47-4.25Q-82.63-4.38-83.33-4.40L-83.33-4.40L-83.33-4.89L-79.32-4.89Q-77.60-4.89-76.79-4.40L-76.79-4.40Q-75.69-3.73-75.69-2.26L-75.69-2.26Q-75.69-0.85-76.69-0.14L-76.69-0.14Q-77.60 0.51-79.46 0.51L-79.46 0.51L-80.24 0.51L-80.24 2.81Q-80.24 3.30-80.04 3.43Q-79.85 3.55-79.00 3.60L-79.00 3.60L-79.00 4.07ZM-80.24-3.82L-80.24-0.65Q-80.24-0.30-80.08-0.19Q-79.93-0.09-79.51-0.09L-79.51-0.09Q-78.62-0.09-78.24-0.72Q-77.87-1.34-77.87-2.23L-77.87-2.23Q-77.87-3.27-78.32-3.79Q-78.76-4.30-79.47-4.30L-79.47-4.30Q-79.95-4.30-80.10-4.20Q-80.24-4.10-80.24-3.82L-80.24-3.82Z"/><path fill="#000000" opacity="1" d="M-70.80 4.07L-74.92 4.07L-74.92 3.58Q-74.22 3.55-74.05 3.43Q-73.89 3.30-73.89 2.81L-73.89 2.81L-73.89-3.64Q-73.89-4.13-74.05-4.25Q-74.22-4.38-74.92-4.40L-74.92-4.40L-74.92-4.89L-70.80-4.89L-70.80-4.40Q-71.50-4.38-71.66-4.25Q-71.82-4.13-71.82-3.64L-71.82-3.64L-71.82-0.58L-70.46-2.15Q-69.94-2.73-68.96-3.99L-68.96-3.99Q-68.70-4.31-69.04-4.35L-69.04-4.35L-69.58-4.43L-69.58-4.89L-66.06-4.89L-66.06-4.43Q-66.61-4.38-66.90-4.27Q-67.18-4.17-67.55-3.90L-67.55-3.90Q-67.87-3.65-68.24-3.31Q-68.61-2.98-68.78-2.80Q-68.96-2.63-69.49-2.06Q-70.02-1.50-70.15-1.36L-70.15-1.36Q-68.74 1.00-67.09 2.88L-67.09 2.88Q-66.52 3.52-66.16 3.61L-66.16 3.61L-66.03 3.65L-66.03 4.15L-66.91 4.12Q-68.13 4.08-68.75 3.76Q-69.37 3.45-70.02 2.53L-70.02 2.53Q-71.11 0.97-71.79-0.32L-71.79-0.32L-71.82-0.32L-71.82 2.81Q-71.82 3.30-71.66 3.43Q-71.50 3.55-70.80 3.58L-70.80 3.58L-70.80 4.07Z"/><path fill="#000000" opacity="1" d="M-61.64 4.07L-65.76 4.07L-65.76 3.58Q-65.06 3.55-64.90 3.43Q-64.74 3.30-64.74 2.81L-64.74 2.81L-64.74-3.64Q-64.74-4.13-64.90-4.25Q-65.06-4.38-65.76-4.40L-65.76-4.40L-65.76-4.89L-61.64-4.89L-61.64-4.40Q-62.34-4.38-62.50-4.25Q-62.67-4.13-62.67-3.64L-62.67-3.64L-62.67 2.81Q-62.67 3.30-62.50 3.43Q-62.34 3.55-61.64 3.58L-61.64 3.58L-61.64 4.07Z"/><path fill="#000000" opacity="1" d=""/><path fill="#000000" opacity="1" d="M-53.95 4.07L-58.07 4.07L-58.07 3.58Q-57.37 3.55-57.21 3.43Q-57.04 3.30-57.04 2.81L-57.04 2.81L-57.04-3.64Q-57.04-4.13-57.21-4.25Q-57.37-4.38-58.07-4.40L-58.07-4.40L-58.07-4.89L-53.95-4.89L-53.95-4.40Q-54.65-4.38-54.81-4.25Q-54.97-4.13-54.97-3.64L-54.97-3.64L-54.97-0.97L-51.57-0.97L-51.57-3.64Q-51.57-4.13-51.73-4.25Q-51.89-4.38-52.59-4.40L-52.59-4.40L-52.59-4.89L-48.47-4.89L-48.47-4.40Q-49.17-4.38-49.33-4.25Q-49.49-4.13-49.49-3.64L-49.49-3.64L-49.49 2.81Q-49.49 3.30-49.33 3.43Q-49.17 3.55-48.47 3.58L-48.47 3.58L-48.47 4.07L-52.59 4.07L-52.59 3.58Q-51.89 3.55-51.73 3.43Q-51.57 3.30-51.57 2.81L-51.57 2.81L-51.57-0.35L-54.97-0.35L-54.97 2.81Q-54.97 3.30-54.81 3.43Q-54.65 3.55-53.95 3.58L-53.95 3.58L-53.95 4.07Z"/><path fill="#000000" opacity="1" d="M-45.38 4.07L-48.41 4.07L-48.41 3.58Q-47.88 3.55-47.69 3.43Q-47.51 3.30-47.36 2.90L-47.36 2.90Q-47.32 2.79-46.15-0.53L-46.15-0.53L-44.65-4.89L-43.02-4.89L-40.47 2.95Q-40.34 3.34-40.16 3.45Q-39.98 3.56-39.46 3.58L-39.46 3.58L-39.46 4.07L-43.55 4.07L-43.55 3.58L-42.80 3.50Q-42.44 3.46-42.58 3.03L-42.58 3.03L-43.25 0.88L-45.77 0.88Q-46.28 2.58-46.39 3.05L-46.39 3.05Q-46.45 3.25-46.41 3.38Q-46.36 3.50-46.15 3.51L-46.15 3.51L-45.38 3.58L-45.38 4.07ZM-44.51-3.09L-45.56 0.26L-43.46 0.26L-44.47-3.09L-44.51-3.09Z"/><path fill="#000000" opacity="1" d="M-35.16 4.07L-39.28 4.07L-39.28 3.58Q-38.58 3.55-38.42 3.43Q-38.25 3.30-38.25 2.81L-38.25 2.81L-38.25-3.64Q-38.25-4.13-38.42-4.25Q-38.58-4.38-39.28-4.40L-39.28-4.40L-39.28-4.89L-34.78-4.89Q-33.06-4.89-32.28-4.22L-32.28-4.22Q-31.64-3.62-31.64-2.58L-31.64-2.58Q-31.64-1.73-32.25-1.15Q-32.85-0.57-33.83-0.44L-33.83-0.44L-33.83-0.41Q-32.92-0.18-32.58 0.34Q-32.23 0.87-32.06 1.81L-32.06 1.81Q-31.88 2.84-31.43 3.29L-31.43 3.29Q-31.16 3.56-30.82 3.58L-30.82 3.58L-30.82 4.07L-31.78 4.07Q-32.79 4.07-33.28 3.78Q-33.77 3.50-34.01 2.77L-34.01 2.77Q-34.10 2.48-34.18 2.14Q-34.25 1.80-34.32 1.45Q-34.40 1.09-34.42 0.96L-34.42 0.96Q-34.64-0.05-35.59-0.05L-35.59-0.05L-36.18-0.05L-36.18 2.81Q-36.18 3.30-36.02 3.43Q-35.86 3.55-35.16 3.58L-35.16 3.58L-35.16 4.07ZM-36.18-3.79L-36.18-0.65L-35.53-0.65Q-33.81-0.65-33.81-2.50L-33.81-2.50Q-33.81-4.30-35.35-4.30L-35.35-4.30Q-35.86-4.30-36.02-4.19Q-36.18-4.08-36.18-3.79L-36.18-3.79Z"/><path fill="#000000" opacity="1" d=""/><path fill="#000000" opacity="1" d="M-27.97 5.54L-28.05 5.14Q-27.42 4.94-27.05 4.53L-27.05 4.53Q-26.55 3.96-26.55 2.18L-26.55 2.18L-26.55-3.64Q-26.55-4.13-26.71-4.25Q-26.87-4.38-27.57-4.40L-27.57-4.40L-27.57-4.89L-23.45-4.89L-23.45-4.40Q-24.15-4.38-24.31-4.25Q-24.48-4.13-24.48-3.64L-24.48-3.64L-24.48 2.22Q-24.48 3.36-24.79 4.06Q-25.10 4.77-25.82 5.12L-25.82 5.12Q-26.78 5.57-27.97 5.54L-27.97 5.54Z"/><path fill="#000000" opacity="1" d="M-20.46 4.07L-23.49 4.07L-23.49 3.58Q-22.96 3.55-22.78 3.43Q-22.60 3.30-22.44 2.90L-22.44 2.90Q-22.40 2.79-21.24-0.53L-21.24-0.53L-19.74-4.89L-18.10-4.89L-15.55 2.95Q-15.42 3.34-15.24 3.45Q-15.06 3.56-14.54 3.58L-14.54 3.58L-14.54 4.07L-18.64 4.07L-18.64 3.58L-17.88 3.50Q-17.52 3.46-17.66 3.03L-17.66 3.03L-18.34 0.88L-20.85 0.88Q-21.37 2.58-21.47 3.05L-21.47 3.05Q-21.54 3.25-21.49 3.38Q-21.45 3.50-21.24 3.51L-21.24 3.51L-20.46 3.58L-20.46 4.07ZM-19.59-3.09L-20.64 0.26L-18.54 0.26L-19.55-3.09L-19.59-3.09Z"/><path fill="#000000" opacity="1" d="M-10.24 4.07L-14.36 4.07L-14.36 3.58Q-13.66 3.55-13.50 3.43Q-13.34 3.30-13.34 2.81L-13.34 2.81L-13.34-3.64Q-13.34-4.13-13.50-4.25Q-13.66-4.38-14.36-4.40L-14.36-4.40L-14.36-4.89L-9.87-4.89Q-8.15-4.89-7.37-4.22L-7.37-4.22Q-6.72-3.62-6.72-2.58L-6.72-2.58Q-6.72-1.73-7.33-1.15Q-7.94-0.57-8.91-0.44L-8.91-0.44L-8.91-0.41Q-8.00-0.18-7.66 0.34Q-7.32 0.87-7.15 1.81L-7.15 1.81Q-6.97 2.84-6.51 3.29L-6.51 3.29Q-6.24 3.56-5.91 3.58L-5.91 3.58L-5.91 4.07L-6.86 4.07Q-7.87 4.07-8.37 3.78Q-8.86 3.50-9.09 2.77L-9.09 2.77Q-9.18 2.48-9.26 2.14Q-9.34 1.80-9.41 1.45Q-9.48 1.09-9.51 0.96L-9.51 0.96Q-9.73-0.05-10.67-0.05L-10.67-0.05L-11.27-0.05L-11.27 2.81Q-11.27 3.30-11.10 3.43Q-10.94 3.55-10.24 3.58L-10.24 3.58L-10.24 4.07ZM-11.27-3.79L-11.27-0.65L-10.62-0.65Q-8.90-0.65-8.90-2.50L-8.90-2.50Q-8.90-4.30-10.44-4.30L-10.44-4.30Q-10.94-4.30-11.10-4.19Q-11.27-4.08-11.27-3.79L-11.27-3.79Z"/><path fill="#000000" opacity="1" d="M-5.94-4.40L-5.94-4.40L-5.94-4.89L-1.90-4.89L-1.90-4.40Q-2.56-4.38-2.73-4.25Q-2.89-4.13-2.89-3.64L-2.89-3.64L-2.89 1.34Q-2.89 3.67-1.23 3.67Q0.43 3.67 0.43 1.34L0.43 1.34L0.43-3.64Q0.43-4.13 0.27-4.25Q0.10-4.38-0.56-4.40L-0.56-4.40L-0.56-4.89L3.48-4.89L3.48-4.40Q2.82-4.38 2.66-4.25Q2.50-4.13 2.50-3.64L2.50-3.64L2.50 1.15Q2.49 2.80 1.55 3.53Q0.62 4.26-1.23 4.26L-1.23 4.26Q-3.19 4.26-4.07 3.54Q-4.96 2.82-4.96 1.15L-4.96 1.15L-4.96-3.64Q-4.96-4.13-5.12-4.25Q-5.28-4.38-5.94-4.40Z"/><path fill="#000000" opacity="1" d="M8.40 4.07L4.29 4.07L4.29 3.58Q4.99 3.55 5.15 3.43Q5.31 3.30 5.31 2.81L5.31 2.81L5.31-3.64Q5.31-4.13 5.15-4.25Q4.99-4.38 4.29-4.40L4.29-4.40L4.29-4.89L8.78-4.89Q10.50-4.89 11.28-4.22L11.28-4.22Q11.93-3.62 11.93-2.58L11.93-2.58Q11.93-1.73 11.32-1.15Q10.71-0.57 9.74-0.44L9.74-0.44L9.74-0.41Q10.64-0.18 10.99 0.34Q11.33 0.87 11.50 1.81L11.50 1.81Q11.68 2.84 12.13 3.29L12.13 3.29Q12.41 3.56 12.74 3.58L12.74 3.58L12.74 4.07L11.78 4.07Q10.77 4.07 10.28 3.78Q9.79 3.50 9.56 2.77L9.56 2.77Q9.47 2.48 9.39 2.14Q9.31 1.80 9.24 1.45Q9.17 1.09 9.14 0.96L9.14 0.96Q8.92-0.05 7.98-0.05L7.98-0.05L7.38-0.05L7.38 2.81Q7.38 3.30 7.54 3.43Q7.71 3.55 8.40 3.58L8.40 3.58L8.40 4.07ZM7.38-3.79L7.38-0.65L8.03-0.65Q9.75-0.65 9.75-2.50L9.75-2.50Q9.75-4.30 8.21-4.30L8.21-4.30Q7.71-4.30 7.54-4.19Q7.38-4.08 7.38-3.79L7.38-3.79Z"/><path fill="#000000" opacity="1" d="M15.38 4.07L12.35 4.07L12.35 3.58Q12.89 3.55 13.07 3.43Q13.25 3.30 13.40 2.90L13.40 2.90Q13.44 2.79 14.61-0.53L14.61-0.53L16.11-4.89L17.74-4.89L20.29 2.95Q20.42 3.34 20.60 3.45Q20.78 3.56 21.30 3.58L21.30 3.58L21.30 4.07L17.21 4.07L17.21 3.58L17.96 3.50Q18.32 3.46 18.18 3.03L18.18 3.03L17.51 0.88L15.00 0.88Q14.48 2.58 14.37 3.05L14.37 3.05Q14.31 3.25 14.36 3.38Q14.40 3.50 14.61 3.51L14.61 3.51L15.38 3.58L15.38 4.07ZM16.25-3.09L15.20 0.26L17.30 0.26L16.29-3.09L16.25-3.09Z"/><path fill="#000000" opacity="1" d="M20.99-2.46L20.50-2.46L20.50-4.89L28.19-4.89L28.19-2.46L27.70-2.46Q27.56-2.89 27.49-3.05Q27.43-3.22 27.31-3.50Q27.18-3.78 27.08-3.88Q26.97-3.97 26.80-4.10Q26.63-4.22 26.41-4.26Q26.20-4.30 25.90-4.30L25.90-4.30L25.38-4.30L25.38 2.84Q25.38 3.20 25.49 3.36Q25.59 3.51 25.89 3.52L25.89 3.52L26.63 3.58L26.63 4.07L22.07 4.07L22.07 3.58L22.80 3.52Q23.10 3.51 23.21 3.36Q23.31 3.20 23.31 2.84L23.31 2.84L23.31-4.30L22.79-4.30Q21.96-4.30 21.67-3.93Q21.37-3.57 20.99-2.46L20.99-2.46Z"/><path fill="#000000" opacity="1" d="M28.06 6.23L27.67 5.86Q28.45 4.99 28.45 4.17L28.45 4.17Q28.45 3.86 28.19 3.42Q27.93 2.98 27.93 2.68L27.93 2.68Q27.93 2.29 28.19 2.02Q28.44 1.74 28.89 1.74L28.89 1.74Q29.41 1.74 29.75 2.14Q30.08 2.54 30.08 3.23L30.08 3.23Q30.08 4.60 28.06 6.23L28.06 6.23Z"/><path fill="#000000" opacity="1" d="M38.45 4.07L31.21 4.07L31.21 3.58Q31.91 3.55 32.07 3.43Q32.23 3.30 32.23 2.81L32.23 2.81L32.23-3.64Q32.23-4.13 32.07-4.25Q31.91-4.38 31.21-4.40L31.21-4.40L31.21-4.89L38.19-4.89L38.19-2.50L37.70-2.50Q37.53-3.05 37.41-3.33Q37.28-3.61 37.07-3.86Q36.86-4.12 36.54-4.21Q36.22-4.30 35.73-4.30L35.73-4.30L34.76-4.30Q34.49-4.30 34.40-4.21Q34.30-4.12 34.30-3.83L34.30-3.83L34.30-0.97L35.53-0.97Q36.13-0.97 36.35-1.19Q36.57-1.41 36.73-2.13L36.73-2.13L37.22-2.13L37.22 0.87L36.73 0.87Q36.57 0.14 36.35-0.08Q36.13-0.30 35.53-0.30L35.53-0.30L34.30-0.30L34.30 2.53Q34.30 3.12 34.63 3.30Q34.95 3.47 35.90 3.47L35.90 3.47Q36.27 3.47 36.55 3.43Q36.83 3.38 37.05 3.23Q37.27 3.07 37.40 2.95Q37.53 2.84 37.67 2.53Q37.81 2.22 37.89 2.03Q37.96 1.84 38.11 1.37L38.11 1.37L38.60 1.37L38.45 4.07Z"/><path fill="#000000" opacity="1" d="M43.47 4.07L39.36 4.07L39.36 3.58Q40.05 3.55 40.22 3.43Q40.38 3.30 40.38 2.81L40.38 2.81L40.38-3.64Q40.38-4.13 40.22-4.25Q40.05-4.38 39.36-4.40L39.36-4.40L39.36-4.89L43.47-4.89L43.47-4.40Q42.77-4.38 42.61-4.25Q42.45-4.13 42.45-3.64L42.45-3.64L42.45-0.58L43.81-2.15Q44.33-2.73 45.31-3.99L45.31-3.99Q45.57-4.31 45.23-4.35L45.23-4.35L44.69-4.43L44.69-4.89L48.21-4.89L48.21-4.43Q47.66-4.38 47.37-4.27Q47.09-4.17 46.72-3.90L46.72-3.90Q46.40-3.65 46.03-3.31Q45.66-2.98 45.49-2.80Q45.31-2.63 44.78-2.06Q44.25-1.50 44.12-1.36L44.12-1.36Q45.53 1.00 47.18 2.88L47.18 2.88Q47.75 3.52 48.11 3.61L48.11 3.61L48.24 3.65L48.24 4.15L47.36 4.12Q46.14 4.08 45.52 3.76Q44.90 3.45 44.25 2.53L44.25 2.53Q43.16 0.97 42.48-0.32L42.48-0.32L42.45-0.32L42.45 2.81Q42.45 3.30 42.61 3.43Q42.77 3.55 43.47 3.58L43.47 3.58L43.47 4.07Z"/><path fill="#000000" opacity="1" d=""/><path fill="#000000" opacity="1" d="M50.96 5.54L50.88 5.14Q51.52 4.94 51.88 4.53L51.88 4.53Q52.38 3.96 52.38 2.18L52.38 2.18L52.38-3.64Q52.38-4.13 52.22-4.25Q52.06-4.38 51.36-4.40L51.36-4.40L51.36-4.89L55.48-4.89L55.48-4.40Q54.78-4.38 54.62-4.25Q54.45-4.13 54.45-3.64L54.45-3.64L54.45 2.22Q54.45 3.36 54.14 4.06Q53.83 4.77 53.11 5.12L53.11 5.12Q52.15 5.57 50.96 5.54L50.96 5.54Z"/><path fill="#000000" opacity="1" d="M58.47 4.07L55.44 4.07L55.44 3.58Q55.97 3.55 56.15 3.43Q56.33 3.30 56.49 2.90L56.49 2.90Q56.53 2.79 57.69-0.53L57.69-0.53L59.19-4.89L60.83-4.89L63.38 2.95Q63.51 3.34 63.69 3.45Q63.87 3.56 64.39 3.58L64.39 3.58L64.39 4.07L60.30 4.07L60.30 3.58L61.05 3.50Q61.41 3.46 61.27 3.03L61.27 3.03L60.59 0.88L58.08 0.88Q57.56 2.58 57.46 3.05L57.46 3.05Q57.39 3.25 57.44 3.38Q57.49 3.50 57.69 3.51L57.69 3.51L58.47 3.58L58.47 4.07ZM59.34-3.09L58.29 0.26L60.39 0.26L59.38-3.09L59.34-3.09Z"/><path fill="#000000" opacity="1" d="M64.45-0.35L64.45-0.35Q64.45-0.96 64.55-1.53Q64.65-2.11 64.96-2.78Q65.27-3.46 65.77-3.94Q66.28-4.43 67.18-4.76Q68.08-5.09 69.27-5.09L69.27-5.09Q71.17-5.09 72.24-4.52L72.24-4.52L72.24-2.16L71.74-2.16Q71.59-2.64 71.41-3.00Q71.23-3.37 70.95-3.73Q70.67-4.10 70.26-4.30Q69.85-4.49 69.33-4.49L69.33-4.49Q68.79-4.49 68.36-4.29Q67.92-4.09 67.65-3.75Q67.38-3.40 67.19-3.00Q67.00-2.60 66.91-2.13Q66.82-1.66 66.78-1.27Q66.74-0.89 66.74-0.52L66.74-0.52Q66.74-0.19 66.77 0.13Q66.80 0.46 66.87 0.98Q66.94 1.50 67.11 1.94Q67.28 2.37 67.53 2.79Q67.79 3.20 68.23 3.43Q68.66 3.67 69.22 3.67L69.22 3.67Q69.88 3.67 70.09 3.55Q70.29 3.43 70.29 3.08L70.29 3.08L70.29 1.26Q70.29 0.78 70.12 0.66Q69.94 0.55 69.18 0.49L69.18 0.49L69.18 0.00L73.09 0.00L73.09 0.49Q72.61 0.55 72.49 0.66Q72.36 0.78 72.36 1.23L72.36 1.23L72.36 3.64Q70.97 4.26 69.22 4.26L69.22 4.26Q67.26 4.26 66.20 3.55L66.20 3.55Q64.45 2.37 64.45-0.35Z"/><path fill="#000000" opacity="1" d="M75.98 4.07L72.95 4.07L72.95 3.58Q73.48 3.55 73.66 3.43Q73.84 3.30 74.00 2.90L74.00 2.90Q74.04 2.79 75.20-0.53L75.20-0.53L76.70-4.89L78.33-4.89L80.89 2.95Q81.02 3.34 81.20 3.45Q81.38 3.56 81.90 3.58L81.90 3.58L81.90 4.07L77.80 4.07L77.80 3.58L78.55 3.50Q78.92 3.46 78.77 3.03L78.77 3.03L78.10 0.88L75.59 0.88Q75.07 2.58 74.97 3.05L74.97 3.05Q74.90 3.25 74.95 3.38Q74.99 3.50 75.20 3.51L75.20 3.51L75.98 3.58L75.98 4.07ZM76.85-3.09L75.80 0.26L77.89 0.26L76.88-3.09L76.85-3.09Z"/><path fill="#000000" opacity="1" d="M86.20 4.07L82.08 4.07L82.08 3.58Q82.78 3.55 82.94 3.43Q83.10 3.30 83.10 2.81L83.10 2.81L83.10-3.64Q83.10-4.13 82.94-4.25Q82.78-4.38 82.08-4.40L82.08-4.40L82.08-4.89L86.20-4.89L86.20-4.40Q85.50-4.38 85.33-4.25Q85.17-4.13 85.17-3.64L85.17-3.64L85.17-0.97L88.58-0.97L88.58-3.64Q88.58-4.13 88.42-4.25Q88.25-4.38 87.55-4.40L87.55-4.40L87.55-4.89L91.67-4.89L91.67-4.40Q90.97-4.38 90.81-4.25Q90.65-4.13 90.65-3.64L90.65-3.64L90.65 2.81Q90.65 3.30 90.81 3.43Q90.97 3.55 91.67 3.58L91.67 3.58L91.67 4.07L87.55 4.07L87.55 3.58Q88.25 3.55 88.42 3.43Q88.58 3.30 88.58 2.81L88.58 2.81L88.58-0.35L85.17-0.35L85.17 2.81Q85.17 3.30 85.33 3.43Q85.50 3.55 86.20 3.58L86.20 3.58L86.20 4.07Z"/></g><g transform="matrix(0.7685885139442336 0 0 0.7685885139442336 282.34188663851126 241.2003140283171)"  >
<path style="stroke: none; stroke-width: 0; stroke-dasharray: none; stroke-linecap: butt; stroke-dashoffset: 0; stroke-linejoin: miter; stroke-miterlimit: 4; fill: rgb(255,255,255); fill-rule: nonzero; opacity: 1;"  transform=" translate(-359.9914014416763, -753.9971)" d="M 361.45007 741.1556 L 361.45007 741.15656 L 361.45007 741.15753 L 361.44547 741.1585 C 361.16992 741.15656 360.914 741.24347 360.70535 741.39215 L 360.70264 741.39404 C 359.2866 742.3346 357.9868 743.8497 357.1106 745.3135 C 356.87457 745.70776 356.64978 746.131 356.44418 746.5719 L 356.4406 746.5729 C 355.59036 746.8214 354.96948 747.6073 354.96948 748.53827 L 354.96948 748.53925 C 354.96948 749.67084 355.88684 750.5882 357.01843 750.5882 C 358.15002 750.5882 359.06738 749.67084 359.06738 748.53925 L 359.06738 748.53827 C 359.06738 748.1797 358.97293 747.8458 358.81107 747.5527 L 358.80978 747.5504 C 358.9553 747.25507 359.12198 746.9492 359.31226 746.63135 C 360.28726 745.00244 361.27612 744.0699 362.06564 743.56757 L 362.06665 743.567 C 362.4655 743.3475 362.73303 742.92584 362.73303 742.4395 L 362.73303 742.43854 C 362.73303 741.73 362.15863 741.1556 361.45007 741.1556 L 361.45007 741.15656 Z M 366.96622 743.71387 L 366.96622 743.71484 L 366.96622 743.7158 L 366.9616 743.7168 C 366.68576 743.71484 366.4291 743.80225 366.2203 743.95123 L 366.21796 743.9529 C 364.80222 744.8935 363.50275 746.40826 362.62674 747.87177 C 362.39072 748.2661 362.16592 748.6893 361.9603 749.13025 L 361.9567 749.1312 C 361.10648 749.3797 360.48563 750.16565 360.48563 751.09656 L 360.48563 751.09753 C 360.48563 752.2291 361.40298 753.1465 362.53458 753.1465 C 363.66617 753.1465 364.58353 752.2291 364.58353 751.09753 L 364.58353 751.09656 C 364.58353 750.738 364.48987 750.4057 364.32803 750.1125 L 364.3259 750.1087 C 364.47144 749.8134 364.63812 749.50757 364.8284 749.18964 C 365.8031 747.5612 366.79166 746.6287 367.58105 746.1263 L 367.58295 746.12524 C 367.98227 745.9058 368.24918 745.4845 368.24918 744.9978 L 368.24918 744.9968 C 368.24918 744.28827 367.67477 743.71387 366.96622 743.71387 L 366.96622 743.71484 Z M 372.4211 746.23834 L 372.4211 746.2393 L 372.4211 746.2403 L 372.41656 746.2413 C 372.14032 746.2393 371.8823 746.3276 371.67337 746.477 L 371.67206 746.4779 C 370.25662 747.4185 368.9575 748.933 368.08163 750.39624 C 367.8456 750.7906 367.62082 751.21375 367.4152 751.6547 L 367.41153 751.6557 C 366.56134 751.90424 365.94052 752.6901 365.94052 753.62103 L 365.94052 753.622 C 365.94052 754.7536 366.85788 755.67096 367.98947 755.67096 C 369.12106 755.67096 370.03842 754.7536 370.03842 753.622 L 370.03842 753.62103 C 370.03842 753.26245 369.9437 752.9283 369.78183 752.63513 L 369.78076 752.63324 C 369.9263 752.3379 370.093 752.03204 370.2833 751.7141 C 371.25806 750.0856 372.24664 749.15314 373.03607 748.6507 L 373.03723 748.6501 C 373.4365 748.43066 373.70407 748.0089 373.70407 747.5223 L 373.70407 747.5213 C 373.70407 746.81274 373.12967 746.23834 372.4211 746.23834 L 372.4211 746.2393 Z M 340.93427 753.03375 L 340.93427 753.0347 C 341.2863 753.03375 341.67142 753.05853 342.0912 753.1147 L 342.09116 753.11566 C 345.06113 753.51227 345.94333 754.97235 345.89398 755.3411 L 345.89398 755.3412 C 345.85162 755.6579 344.93488 756.57025 342.7966 756.57025 C 342.44455 756.57025 342.05936 756.54553 341.63953 756.4893 L 341.6395 756.4903 C 338.66953 756.0918 337.78732 754.6315 337.83667 754.26276 C 337.87903 753.9462 338.79584 753.03375 340.93427 753.03375 L 340.93427 753.0347 Z M 341.0816 750.48315 C 341.0816 750.48315 341.081 750.48315 341.081 750.48315 C 338.46436 750.48315 335.62326 751.45795 335.2934 753.9223 C 334.9053 756.8219 338.4143 758.6464 341.2991 759.03253 L 341.29907 759.0335 C 341.732 759.0905 342.18704 759.1209 342.64908 759.1209 C 345.26535 759.1209 348.10666 758.1463 348.43713 755.6825 L 348.43726 755.6835 C 348.82535 752.7819 345.31616 750.9576 342.4316 750.5715 L 342.43103 750.5714 C 341.9982 750.5125 341.5439 750.48315 341.08197 750.48315 Z M 387.14136 758.0721 C 387.14136 758.0721 387.14227 758.0748 387.14227 758.0748 C 387.74698 759.8827 387.85547 761.1125 386.80002 762.2229 C 385.14526 763.9638 380.71143 765.5809 376.7692 766.625 C 373.6281 767.457 371.1395 767.8467 365.81317 767.8467 C 364.8384 767.8467 363.76862 767.8336 362.5824 767.80786 L 362.57986 767.8078 C 357.82657 767.7025 351.26285 767.3984 345.53525 766.8996 L 345.5049 766.89685 C 341.955 766.58716 338.77493 766.20685 336.56906 765.76465 L 336.56357 765.76355 C 331.47992 764.7437 332.3771 763.67145 332.44568 763.33026 C 332.4677 763.2206 332.48892 763.12604 332.51758 762.998 L 332.51764 762.9977 C 332.52652 762.9581 332.54636 762.8691 332.55606 762.82477 C 332.66278 762.3369 332.74673 761.8584 332.81433 761.389 L 332.81717 761.38965 C 334.01074 761.6599 335.3729 761.92633 337.29626 762.1617 L 337.29755 762.1619 C 338.56247 762.3167 340.08173 762.459 341.97125 762.6238 L 341.99387 762.6258 C 342.6625 762.6841 343.44815 762.7522 344.22992 762.8191 L 344.2317 762.8193 C 345.3568 762.91455 346.03326 762.973 347.33975 763.08704 L 347.34216 763.0872 C 348.10358 763.15265 348.75912 763.2103 349.60123 763.2858 L 350.3777 763.35583 C 351.02298 763.41394 351.79642 763.4835 352.49225 763.5442 C 356.06604 763.85596 360.2202 764.17114 364.27753 764.17114 C 366.73865 764.17114 369.16315 764.0563 371.40186 763.7531 L 371.40283 763.753 C 377.79724 762.886 382.61136 760.50305 387.13892 758.0727 Z M 351.5542 737.5801 C 351.5542 737.5801 351.55365 737.5801 351.55365 737.5801 C 351.1434 737.58105 350.74414 737.77814 350.4768 738.14923 C 349.51794 739.4802 348.1316 741.3268 348.12387 743.1407 C 348.12234 743.50073 348.1739 743.848 348.2648 744.1816 C 348.19336 744.1694 348.12125 744.1633 348.0493 744.1633 C 347.8232 744.1633 347.59827 744.223 347.39856 744.34045 C 344.92245 745.7966 342.84476 746.97815 340.73782 746.97815 C 340.72025 746.97815 340.7027 746.9781 340.68512 746.9779 C 340.53537 746.9764 340.3831 746.9688 340.23343 746.95575 C 338.1716 746.7759 335.93018 745.5744 333.36157 744.1678 C 333.16885 744.06226 332.95673 744.0101 332.74527 744.0101 C 332.48447 744.0101 332.22467 744.0894 332.00348 744.24603 C 331.60297 744.5296 331.3992 745.0168 331.47913 745.5045 C 331.73697 747.07825 331.9756 748.5455 331.7828 750.7952 C 331.62784 752.604 331.19183 754.91785 330.68567 757.39636 L 330.68347 757.407 C 330.65598 757.551 330.6271 757.6956 330.59756 757.8407 L 330.59744 757.8414 C 330.55786 758.0373 330.5276 758.2396 330.5154 758.44507 L 330.5153 758.4465 C 330.47556 759.1002 330.42868 759.73895 330.35608 760.37787 L 330.3561 760.37885 C 330.2848 761.00525 330.18863 761.63293 330.04794 762.27606 L 330.0479 762.2762 C 330.04123 762.3068 330.02017 762.40137 330.01215 762.43713 C 329.98502 762.5582 329.95654 762.68475 329.92834 762.8253 L 329.9283 762.8255 C 329.42453 765.339 330.52448 767.17255 336.0596 768.282 L 336.06436 768.28296 C 338.41467 768.7532 341.7097 769.14294 345.28183 769.45465 L 345.28503 769.455 C 351.0845 769.9609 357.71796 770.2711 362.52438 770.3756 L 362.52655 770.3757 C 363.72665 770.40076 364.81467 770.4141 365.81137 770.4141 C 371.2956 770.4141 374.01434 770.01056 377.42654 769.1068 C 381.2314 768.09906 386.42175 766.3475 388.66092 763.9917 C 391.25064 761.2671 389.8862 757.99945 389.0406 755.7779 C 389.004 755.68176 388.9571 755.5926 388.90164 755.5111 L 388.90103 755.5101 C 388.57083 754.94385 388.20737 754.35126 387.64688 753.77185 L 387.64413 753.769 C 387.0027 753.1018 386.0911 752.458 384.65756 751.8983 C 383.1733 751.31885 381.1106 750.82666 379.06714 750.3362 C 378.28653 750.1488 377.51532 749.97003 376.75485 749.77094 C 376.6303 749.73834 376.50598 749.7179 376.37518 749.7179 C 376.37396 749.7179 376.37338 749.7179 376.37338 749.7179 C 375.6637 749.7179 375.09222 750.2912 375.09222 750.9979 C 375.09222 751.489 375.36096 751.91473 375.765 752.1307 L 375.76743 752.132 C 375.0558 753.10425 374.45215 754.19916 374.00482 755.30426 C 373.762 755.9042 373.55432 756.53394 373.38867 757.1754 L 373.38846 757.1764 C 373.36203 757.27795 373.348 757.3855 373.348 757.4963 L 373.348 757.49725 C 373.348 758.2058 373.9224 758.7802 374.63095 758.7802 C 375.28085 758.7802 375.73367 758.2527 375.89795 757.6759 L 375.899 757.67224 C 376.0261 757.22424 376.18576 756.755 376.3833 756.267 C 376.99448 754.7572 377.73215 753.632 378.46835 752.8332 L 378.83972 752.9241 C 380.79852 753.39233 382.5076 753.81494 383.70953 754.28375 L 383.72174 754.2885 C 384.91293 754.7526 385.55038 755.2405 385.99496 755.7711 L 385.995 755.7721 C 381.49203 758.18854 377.01367 760.39996 371.0581 761.2066 L 371.0553 761.207 C 368.94568 761.4917 366.64618 761.6029 364.2875 761.6029 C 360.378 761.6029 356.3137 761.2991 352.71545 760.9852 C 351.992 760.9221 351.2862 760.8586 350.6087 760.79755 L 349.83182 760.7276 L 349.8306 760.7275 C 348.9526 760.64874 348.36475 760.59705 347.5688 760.5276 L 347.5659 760.52734 C 346.30237 760.41614 345.5329 760.35156 344.454 760.2593 L 344.45047 760.259 C 343.59433 760.18475 342.96262 760.13184 342.22318 760.0674 L 342.19446 760.0648 C 340.31616 759.901 338.84967 759.7634 337.63605 759.6155 L 337.60828 759.6121 C 335.62814 759.3698 334.2918 759.09625 333.07028 758.8112 L 333.07034 758.80884 C 333.07516 758.73145 333.11652 758.3402 333.11652 758.3402 C 333.66147 755.69165 334.16345 753.0776 334.3403 751.01434 C 334.45355 749.6929 334.43417 748.5954 334.35297 747.6217 L 334.3563 747.6227 C 335.6615 748.2771 337.01898 748.8807 338.38504 749.23016 L 338.38574 749.23035 C 338.92917 749.3673 339.47052 749.46576 340.0102 749.5129 C 340.22372 749.5315 340.4415 749.5422 340.6555 749.5446 C 340.67004 749.5448 340.73547 749.547 340.73547 749.547 C 341.10324 749.54504 341.46875 749.5204 341.82886 749.4731 L 341.83218 749.47266 C 344.13217 749.1687 346.2696 747.97845 348.1612 746.8697 L 351.04434 747.99414 C 351.19662 748.0536 351.35464 748.08215 351.5108 748.08215 C 351.92334 748.08215 352.32266 747.88275 352.56784 747.5271 C 352.90582 747.03687 352.86224 746.3785 352.46252 745.9371 C 351.28766 744.63965 350.6877 743.872 350.69077 743.15155 C 350.69348 742.50616 351.14517 741.68463 351.91486 740.56226 C 353.05478 741.22205 354.18765 741.88007 355.30435 742.52344 C 355.4927 742.63196 355.71133 742.694 355.9442 742.694 C 356.65277 742.694 357.22717 742.11957 357.22717 741.411 C 357.22717 740.9423 356.9796 740.5284 356.60287 740.30884 C 355.15698 739.4663 353.67545 738.6143 352.1926 737.7531 L 352.1713 737.741 C 351.9742 737.63153 351.7643 737.5801 351.55453 737.5801 Z" stroke-linecap="round" />
</g>
<g transform="matrix(0.3075472540194021 0 0 0.3075472540194021 288.72792442567413 176.36099578742284)"  >
<g style=""   >
		<g transform="matrix(1.3333333333333335 0 0 1.3333333333333335 0.66760666666665 0.6667400000000185)"  >
<path style="stroke: none; stroke-width: 1; stroke-dasharray: none; stroke-linecap: butt; stroke-dashoffset: 0; stroke-linejoin: miter; stroke-miterlimit: 4; fill: rgb(255,255,255); fill-rule: nonzero; opacity: 1;"  transform=" translate(-50.00070499999998, -50.000055)" d="m 95.516 41.203 l -14.188 -28.406 c 0 -0.015625 0 -0.015625 -0.015625 -0.03125 c -0.03125 -0.078125 -0.10938 -0.14062 -0.17188 -0.21875 c 0 -0.015625 -0.015625 -0.046875 -0.046875 -0.0625 c -0.0625 -0.078125 -0.15625 -0.10938 -0.23438 -0.15625 c -0.03125 -0.015625 -0.0625 -0.046875 -0.09375 -0.0625 l -0.046875 -0.015625 c -0.015625 0 -0.015625 -0.015625 -0.015625 -0.015625 h -0.015625 l -14.031 -5.5156 l 0.65625 -2.3438 c 0.125 -0.48438 -0.078125 -0.98438 -0.5 -1.2344 l -5.1094 -2.9844 c -0.015625 -0.015625 -0.03125 -0.015625 -0.0625 -0.015625 c -0.14062 -0.078125 -0.29688 -0.14062 -0.46875 -0.14062 h -22.328 h -0.015625 c -0.17188 0 -0.32812 0.0625 -0.48438 0.14062 c -0.015625 0 -0.03125 0 -0.046875 0.015625 l -5.125 3 c -0.42188 0.25 -0.625 0.75 -0.48438 1.2344 l 0.65625 2.3438 l -14.109 5.5469 c -0.0625 0.03125 -0.125 0.078125 -0.17188 0.10938 s -0.10938 0.046875 -0.14062 0.09375 c -0.078125 0.0625 -0.125 0.125 -0.17188 0.20312 c -0.03125 0.03125 -0.0625 0.0625 -0.078125 0.10938 c 0 0 -0.015625 0 -0.015625 0.015625 l -14.172 28.391 c -0.25 0.51562 -0.0625 1.1406 0.4375 1.4062 l 15.875 9.0312 l -0.26562 40.609 c 0 0.79688 0.48438 1.4688 1.1875 1.7188 c 1.375 0.54688 13.938 5.3594 25.219 6.0312 h 0.10938 c 0.6875 0 1.2969 -0.35938 1.5938 -0.92188 l 1.3594 -2.3438 l 1.3594 2.3281 c 0.32812 0.57812 0.95312 0.9375 1.6094 0.9375 h 0.125 c 11.016 -0.65625 22.922 -5.1406 25.188 -6.0312 c 0.73438 -0.26562 1.2344 -1.0156 1.1875 -1.7188 l -0.25 -40.594 l 15.859 -9.0469 c 0.5 -0.28125 0.6875 -0.90625 0.4375 -1.4062 z m -74.531 -17.594 c -0.046875 0.125 -0.09375 0.26562 -0.125 0.40625 l -0.078125 0.29688 l 0.1875 0.046875 l -0.15625 24.828 l -13.938 -7.9375 l 12.516 -25.094 l 1.5781 5.125 v 2.3281 z m 27.938 70.703 l -2.0625 3.5312 c -10.531 -0.67188 -22.125 -5 -24.172 -5.7969 l 0.32812 -50.547 c 0.8125 0.8125 1.7656 1.3281 2.875 1.5781 c 0.078125 0.015625 0.15625 0.03125 0.25 0.03125 c 0.32812 0 0.65625 -0.17188 0.85938 -0.4375 c 1.9219 -2.5938 2.0781 -5.3125 0.51562 -8.125 c 0.54688 0.10938 1.0938 0.17188 1.5938 0.17188 c 2.2344 0 4.1875 -1.0625 5.7969 -3.125 c 0.3125 -0.375 0.3125 -0.92188 0.015625 -1.2969 c -1.5156 -2.0156 -3.5469 -3.0781 -5.8438 -3.0781 c -0.42188 0 -0.875 0.03125 -1.2969 0.10938 c 1.2656 -2.3906 1.125 -5.0469 -0.46875 -7.9062 c -0.1875 -0.32812 -0.53125 -0.54688 -1.0312 -0.54688 h -0.03125 c -1.3125 0.15625 -2.4375 0.64062 -3.3281 1.4062 l -1.9688 -6.375 l 12.984 -5.1094 l 4.8906 17.484 c 0.09375 0.34375 0.34375 0.60938 0.67188 0.73438 c 0.125 0.046875 0.25 0.0625 0.375 0.0625 c 0.21875 0 0.42188 -0.0625 0.60938 -0.1875 l 8.4688 -5.8438 v 73.266 z m -8.2031 -92.172 h 18.594 l -9.3125 16.094 z m 36.375 18.203 c -0.90625 -0.8125 -2.0469 -1.2812 -3.4531 -1.4375 c -0.375 0 -0.73438 0.20312 -0.9375 0.54688 c -1.5781 2.8594 -1.7344 5.5156 -0.45312 7.9062 c -0.45312 -0.078125 -0.89062 -0.10938 -1.2969 -0.10938 c -2.2969 0 -4.3125 1.0625 -5.8438 3.0781 c -0.29688 0.39062 -0.29688 0.9375 0 1.2969 c 1.5938 2.0625 3.5625 3.125 5.8125 3.125 c 0.51562 0 1.0469 -0.0625 1.5938 -0.17188 c -1.5781 2.8125 -1.4062 5.5312 0.5 8.125 c 0.20312 0.26562 0.53125 0.4375 0.875 0.4375 c 0.078125 0 0.15625 -0.015625 0.23438 -0.03125 c 1.1094 -0.25 2.0625 -0.78125 2.8906 -1.5781 l 0.046875 9.2031 c -0.078125 0.21875 -0.078125 0.46875 0.015625 0.71875 l 0.25 40.625 c -2.0625 0.79688 -13.719 5.125 -24.188 5.7812 l -2.0469 -3.5156 v -73.281 l 8.4688 5.8438 c 0.17188 0.125 0.39062 0.1875 0.60938 0.1875 c 0.125 0 0.25 -0.015625 0.35938 -0.0625 c 0.32812 -0.125 0.57812 -0.39062 0.67188 -0.71875 l 4.8906 -17.5 l 12.984 5.1094 z m 2.1094 28.844 l -0.078125 -11.5 v -0.15625 l -0.078125 -12.703 c 0.14062 -0.25 0.1875 -0.54688 0.10938 -0.82812 c -0.03125 -0.17188 -0.078125 -0.34375 -0.125 -0.46875 l -0.015625 -2.1562 l 1.5938 -5.2188 l 12.516 25.078 z" stroke-linecap="round" />
</g>
		<g transform="matrix(1.3333333333333335 0 0 1.3333333333333335 -17.36732774568403 8.792226666666673)"  >
<path style="stroke: none; stroke-width: 1; stroke-dasharray: none; stroke-linecap: butt; stroke-dashoffset: 0; stroke-linejoin: miter; stroke-miterlimit: 4; fill: rgb(255,255,255); fill-rule: nonzero; opacity: 1;"  transform=" translate(-36.47450419073698, -56.09417)" d="m 45.938 58.938 c -1.2344 0.82812 -2.4531 1.25 -3.6719 1.25 c -0.85938 0 -1.7031 -0.21875 -2.5469 -0.625 c 0.40625 3 -1.1406 4.8125 -2.5469 5.8125 c -0.1875 0.14062 -0.40625 0.20312 -0.625 0.20312 c -0.20312 0 -0.39062 -0.046875 -0.5625 -0.14062 c -1.8125 -1.0781 -2.6875 -3.0781 -2.6094 -5.9375 c -0.95312 0.46875 -1.8906 0.70312 -2.7969 0.70312 c -1.25 0 -2.4375 -0.42188 -3.5781 -1.2656 c -0.39062 -0.28125 -0.53125 -0.79688 -0.375 -1.2344 c 0.59375 -1.5938 1.8594 -3.5469 4.5469 -4.0938 c -1.2031 -1.5 -1.5781 -3.5625 -1.1719 -6.0938 c 0.09375 -0.53125 0.54688 -0.90625 1.0781 -0.90625 c 2.5781 0.15625 4.3906 1.25 5.4688 3.2656 c 0.5625 -1.0625 1.25 -1.875 2.0469 -2.4219 c 0.8125 -0.5625 1.7031 -0.84375 2.6719 -0.84375 c 0.375 0 0.76562 0.046875 1.1562 0.125 c 0.42188 0.09375 0.76562 0.42188 0.84375 0.84375 c 0.48438 2.4844 0.015625 4.5 -1.375 6.0312 c 2.7031 0.59375 3.9062 2.5312 4.4375 4.0938 c 0.15625 0.46875 -0.015625 0.96875 -0.39062 1.2344 z" stroke-linecap="round" />
</g>
		<g transform="matrix(1.3333333333333335 0 0 1.3333333333333335 -17.36732774568403 41.85356000000001)"  >
<path style="stroke: none; stroke-width: 1; stroke-dasharray: none; stroke-linecap: butt; stroke-dashoffset: 0; stroke-linejoin: miter; stroke-miterlimit: 4; fill: rgb(255,255,255); fill-rule: nonzero; opacity: 1;"  transform=" translate(-36.47450419073698, -80.89017)" d="m 45.938 83.734 c -1.2344 0.82812 -2.4531 1.25 -3.6719 1.25 c -0.85938 0 -1.7031 -0.21875 -2.5469 -0.625 c 0.40625 3 -1.1406 4.8125 -2.5469 5.8125 c -0.1875 0.14062 -0.40625 0.20312 -0.625 0.20312 c -0.20312 0 -0.39062 -0.046875 -0.5625 -0.14062 c -1.8125 -1.0781 -2.6875 -3.0781 -2.6094 -5.9375 c -0.95312 0.46875 -1.8906 0.70312 -2.7969 0.70312 c -1.25 0 -2.4375 -0.42188 -3.5781 -1.2656 c -0.39062 -0.28125 -0.53125 -0.79688 -0.375 -1.2344 c 0.59375 -1.5938 1.8594 -3.5469 4.5469 -4.0938 c -1.2031 -1.5 -1.5781 -3.5625 -1.1719 -6.0938 c 0.09375 -0.53125 0.54688 -0.90625 1.0938 -0.90625 c 2.5625 0.15625 4.375 1.25 5.4531 3.2656 c 0.5625 -1.0625 1.25 -1.875 2.0469 -2.4219 c 0.8125 -0.5625 1.7031 -0.84375 2.6719 -0.84375 c 0.375 0 0.76562 0.046875 1.1562 0.125 c 0.42188 0.09375 0.76562 0.42188 0.84375 0.84375 c 0.48438 2.4844 0.015625 4.5 -1.375 6.0312 c 2.7031 0.59375 3.9062 2.5312 4.4375 4.0938 c 0.15625 0.45312 -0.015625 0.95312 -0.39062 1.2344 z" stroke-linecap="round" />
</g>
		<g transform="matrix(1.3333333333333335 0 0 1.3333333333333335 21.117297551642775 8.792226666666673)"  >
<path style="stroke: none; stroke-width: 1; stroke-dasharray: none; stroke-linecap: butt; stroke-dashoffset: 0; stroke-linejoin: miter; stroke-miterlimit: 4; fill: rgb(255,255,255); fill-rule: nonzero; opacity: 1;"  transform=" translate(-65.33797316373207, -56.09417)" d="m 74.797 58.938 c -1.2344 0.82812 -2.4531 1.25 -3.6719 1.25 c -0.85938 0 -1.7031 -0.21875 -2.5469 -0.625 c 0.40625 3 -1.1406 4.8125 -2.5469 5.8125 c -0.1875 0.14062 -0.40625 0.20312 -0.625 0.20312 c -0.20312 0 -0.39062 -0.046875 -0.5625 -0.14062 c -1.8125 -1.0781 -2.6875 -3.0781 -2.6094 -5.9375 c -0.95312 0.46875 -1.8906 0.70312 -2.7969 0.70312 c -1.25 0 -2.4375 -0.42188 -3.5781 -1.2656 c -0.39062 -0.28125 -0.53125 -0.79688 -0.375 -1.2344 c 0.59375 -1.5938 1.8594 -3.5469 4.5469 -4.0938 c -1.2031 -1.5 -1.5781 -3.5625 -1.1562 -6.0938 c 0.078125 -0.53125 0.51562 -0.90625 1.0625 -0.90625 c 2.5781 0.15625 4.3906 1.25 5.4688 3.2656 c 0.5625 -1.0625 1.25 -1.875 2.0625 -2.4219 c 0.79688 -0.5625 1.6875 -0.84375 2.6562 -0.84375 c 0.375 0 0.76562 0.046875 1.1562 0.125 c 0.4375 0.09375 0.76562 0.42188 0.84375 0.84375 c 0.48438 2.4844 0.015625 4.5 -1.375 6.0312 c 2.7031 0.59375 3.9062 2.5312 4.4375 4.0938 c 0.17188 0.46875 0 0.96875 -0.39062 1.2344 z" stroke-linecap="round" />
</g>
		<g transform="matrix(1.3333333333333335 0 0 1.3333333333333335 21.117230884976077 41.85356000000001)"  >
<path style="stroke: none; stroke-width: 1; stroke-dasharray: none; stroke-linecap: butt; stroke-dashoffset: 0; stroke-linejoin: miter; stroke-miterlimit: 4; fill: rgb(255,255,255); fill-rule: nonzero; opacity: 1;"  transform=" translate(-65.33792316373206, -80.89017)" d="m 74.797 83.734 c -1.2344 0.82812 -2.4531 1.25 -3.6719 1.25 c -0.85938 0 -1.7031 -0.21875 -2.5469 -0.625 c 0.40625 3 -1.1406 4.8125 -2.5469 5.8125 c -0.1875 0.14062 -0.40625 0.20312 -0.625 0.20312 c -0.20312 0 -0.39062 -0.046875 -0.5625 -0.14062 c -1.8125 -1.0781 -2.6875 -3.0781 -2.6094 -5.9375 c -0.95312 0.46875 -1.8906 0.70312 -2.7969 0.70312 c -1.25 0 -2.4375 -0.42188 -3.5781 -1.2656 c -0.39062 -0.28125 -0.53125 -0.79688 -0.375 -1.2344 c 0.59375 -1.5938 1.8594 -3.5469 4.5469 -4.0938 c -1.2031 -1.5 -1.5781 -3.5625 -1.1562 -6.0938 c 0.078125 -0.53125 0.53125 -0.90625 1.0781 -0.90625 c 2.5625 0.15625 4.375 1.25 5.4531 3.2656 c 0.5625 -1.0625 1.25 -1.875 2.0625 -2.4219 c 0.79688 -0.5625 1.6875 -0.84375 2.6562 -0.84375 c 0.375 0 0.76562 0.046875 1.1562 0.125 c 0.4375 0.09375 0.76562 0.42188 0.84375 0.84375 c 0.48438 2.4844 0.015625 4.5 -1.375 6.0312 c 2.7031 0.59375 3.9062 2.5312 4.4375 4.0938 c 0.17188 0.45312 0 0.95312 -0.39062 1.2344 z" stroke-linecap="round" />
</g>
</g>
</g>
<g transform="matrix(2.305192047697806 0 0 1.6771938807950586 216.1367316868135 234.99282627658908)"  >
<path style="stroke: none; stroke-width: 0; stroke-dasharray: none; stroke-linecap: butt; stroke-dashoffset: 0; stroke-linejoin: miter; stroke-miterlimit: 4; fill: rgb(255,255,255); fill-rule: nonzero; opacity: 1;"  transform=" translate(-11.999116118376026, -11.999499999999998)" d="M 18.086 6.505 c -0.028 -1.157 -0.096 -2.261 -0.201 -3.285 c -0.077 -0.682 -0.161 -1.24 -0.255 -1.704 c 0 -0.002 -0.001 -0.004 -0.002 -0.006 c -0.001 -0.003 0 -0.005 0 -0.008 c -0.001 -0.005 -0.005 -0.008 -0.006 -0.013 c -0.187 -0.862 -0.953 -1.485 -1.835 -1.485 h -6.84 c -0.884 0 -1.651 0.626 -1.835 1.488 C 7.11 1.497 7.108 1.499 7.107 1.503 c 0 0.002 0 0.004 0 0.006 c 0 0.002 -0.001 0.004 -0.002 0.006 C 7.01 1.981 6.926 2.539 6.849 3.224 C 6.745 4.233 6.677 5.337 6.647 6.506 c -0.035 1.522 -0.024 3.237 0.029 5.09 H 6.607 c -0.396 0 -0.718 0.322 -0.718 0.718 v 0.767 c 0 0.245 0.123 0.462 0.311 0.592 l -0.263 2.108 c -0.033 0.236 0.038 0.475 0.195 0.655 c 0.16 0.185 0.392 0.29 0.637 0.29 H 6.91 c 0.118 2.089 0.261 3.925 0.388 5.453 l 0.13 1.452 c 0.02 0.206 0.192 0.363 0.398 0.363 h 2.99 c 0.205 0 0.377 -0.155 0.398 -0.359 l 1.152 -11.249 l 0.999 9.756 c 0 0.001 0 0.001 0 0.002 c 0 0.002 0.001 0.004 0.001 0.006 l 0.152 1.486 c 0.021 0.204 0.192 0.359 0.397 0.359 h 2.99 c 0.207 0 0.379 -0.158 0.398 -0.363 l 0.13 -1.453 C 17.626 19.967 18.235 12.301 18.086 6.505 z M 7.608 3.756 l 1.75 0.417 c -0.11 0.994 -0.879 1.784 -1.893 1.926 C 7.493 5.276 7.542 4.494 7.608 3.756 z M 7.691 2.953 c 0.04 -0.319 0.083 -0.609 0.127 -0.869 l 4.15 0.992 v 0.895 L 7.691 2.953 z M 12.768 3.077 l 4.149 -0.992 c 0.044 0.26 0.087 0.55 0.127 0.869 l -4.276 1.018 V 3.077 z M 17.126 3.756 c 0.067 0.745 0.115 1.528 0.143 2.345 c -0.98 -0.127 -1.752 -0.9 -1.886 -1.93 L 17.126 3.756 z M 8.947 0.805 h 6.84 c 0.378 0 0.718 0.202 0.912 0.509 L 12.367 2.35 L 8.035 1.314 C 8.229 1.006 8.568 0.805 8.947 0.805 z M 6.689 12.396 h 1.874 c 0.204 0 0.369 0.165 0.369 0.368 v 0.234 H 6.689 V 12.396 z M 6.73 15.887 L 6.99 13.8 h 1.942 v 1.663 c 0 0.256 -0.208 0.463 -0.463 0.463 L 6.73 15.887 z M 8.469 16.727 c 0.696 0 1.263 -0.567 1.263 -1.264 v -2.698 c 0 -0.645 -0.524 -1.168 -1.169 -1.168 H 7.477 c -0.05 -1.699 -0.061 -3.273 -0.035 -4.692 c 1.389 -0.12 2.502 -1.179 2.698 -2.545 l 1.828 0.435 v 1.803 c 0 0.221 0.179 0.4 0.4 0.4 s 0.4 -0.179 0.4 -0.4 V 4.794 l 1.828 -0.435 c 0.197 1.366 1.31 2.425 2.698 2.545 c 0.107 5.426 -0.413 12.323 -0.624 14.84 h -2.541 L 12.788 8.643 l 0.973 -0.698 c 0.18 -0.129 0.221 -0.379 0.092 -0.558 c -0.129 -0.181 -0.379 -0.22 -0.559 -0.092 l -0.927 0.665 l -0.926 -0.665 c -0.18 -0.128 -0.43 -0.087 -0.559 0.092 c -0.128 0.18 -0.087 0.43 0.092 0.559 l 0.971 0.697 l -1.341 13.102 H 8.065 c -0.118 -1.435 -0.246 -3.116 -0.354 -5.018 H 8.469 z M 8.193 23.194 l -0.059 -0.649 h 2.388 l -0.066 0.649 H 8.193 z M 14.277 23.194 l -0.066 -0.649 h 2.389 l -0.058 0.649 H 14.277 z" stroke-linecap="round" />
</g>
<g transform="matrix(0.5114002831556662 0 0 0.5114002831556662 254.84188663851126 201.48565255317817)"  >
<path style="stroke: none; stroke-width: 0; stroke-dasharray: none; stroke-linecap: butt; stroke-dashoffset: 0; stroke-linejoin: miter; stroke-miterlimit: 4; fill: rgb(255,255,255); fill-rule: nonzero; opacity: 1;"  transform=" translate(-50.00067343411763, -49.99790144900146)" d="m 49.883 4.1328 v 0.023438 c 2.1602 1.0234 3.9531 2.5703 5.5742 4.3125 c 1.4688 1.5781 2.832 3.2148 4.0586 4.9922 c 4.1055 5.957 7.6719 12.316 10.551 18.961 c 1.2617 2.9062 2.2305 5.8789 3.0742 8.9258 c 0.24609 0.88672 0.42188 1.7969 0.59375 2.6992 c 0.046875 0.23438 0.089844 0.46875 0.12109 0.70703 c 0.011719 0.09375 0.011719 0.26172 0.074219 0.33594 c 0.058593 0.066406 0.19922 0.035156 0.27734 0.042968 c 0.26172 0.023438 0.52344 0.03125 0.78125 0.066407 c 0.57422 0.078125 1.1445 0.22656 1.6641 0.48828 c 0.27344 0.13672 0.54688 0.42188 0.83203 0.49609 c 0.027344 -0.31641 -0.12891 -0.72656 -0.20312 -1.0352 c -0.16797 -0.6875 -0.33594 -1.3828 -0.54688 -2.0664 c -0.78906 -2.5703 -1.7812 -5.0312 -2.9297 -7.4609 c -1.8203 -3.8516 -3.8359 -7.6133 -5.7852 -11.395 c -2.3945 -4.6367 -4.793 -9.293 -7.9531 -13.465 c -0.91016 -1.2031 -1.9102 -2.4102 -3.0977 -3.3477 c -1.2617 -0.99609 -2.6953 -1.6758 -4.1602 -2.3086 c -0.66406 -0.28516 -1.3555 -0.50391 -2.043 -0.73047 c -0.25 -0.082031 -0.61719 -0.28125 -0.88281 -0.24219 m -25.816 45.129 c 0.91797 0 1.7266 0.51562 2.5195 0.91406 c 0.23047 0.11719 0.45703 0.27344 0.70703 0.34766 c 0.23047 -5.375 1.4219 -10.582 2.6055 -15.809 c 0.72656 -3.2109 1.6523 -6.3594 2.6016 -9.5078 c 1.6445 -5.4648 3.9141 -10.77 7.6836 -15.125 c 1.3906 -1.6055 2.9727 -3.1055 4.6836 -4.3633 c 0.64453 -0.47266 1.3281 -0.87109 1.9922 -1.3086 c -0.45703 -0.19531 -1.0898 0.074219 -1.5117 0.24219 c -0.15234 0.058594 -0.30469 0.019531 -0.45312 0.066406 c -0.51953 0.17188 -1.0117 0.46484 -1.4883 0.72656 c -1.9727 1.1016 -3.7617 2.5273 -5.3203 4.1562 c -0.79688 0.83203 -1.5078 1.7461 -2.2266 2.6484 c -1.1445 1.4375 -2.2344 2.9453 -3.1602 4.5391 c -0.87109 1.4961 -1.6133 3.0625 -2.3359 4.6367 c -2.6758 5.8242 -4.2852 11.953 -5.2188 18.281 c -0.32812 2.2305 -0.63672 4.4609 -0.85547 6.707 c -0.066406 0.67188 -0.12891 1.3438 -0.17578 2.0156 c -0.019531 0.27344 -0.082031 0.55859 -0.046875 0.83203 m 31.668 4.5117 l 0.73047 1.4883 c 0.48438 -0.003907 0.98438 -0.125 1.4609 -0.19531 c 1.0156 -0.14844 2.0234 -0.34375 3.0273 -0.55469 c 2.7734 -0.58984 5.5273 -1.4023 8.1172 -2.5703 c 1.2305 -0.55469 2.4531 -1.1445 3.582 -1.8984 c 1.0469 -0.70312 2.0039 -1.5312 2.9766 -2.332 c 0.24219 -0.19531 0.48047 -0.39453 0.73047 -0.57813 c 0.11328 -0.085937 0.26172 -0.14844 0.30078 -0.29297 c -0.78516 -0.4375 -1.6328 -0.70312 -2.5469 -0.70312 c -1.5938 0 -3.2656 0.69922 -4.6875 1.3516 c -2.4258 1.1094 -4.7109 2.4961 -7.1094 3.6562 c -2.1406 1.0352 -4.3125 1.9023 -6.582 2.6289 m 1.1602 2.4727 c 0.035157 0.39844 0.25781 0.82812 0.37891 1.2109 c 0.24609 0.79688 0.46484 1.6055 0.64453 2.4219 c 0.59766 2.6836 1.0078 5.3789 1.1953 8.1172 c 0.074219 1.082 0.050781 2.168 0.078125 3.2539 c 0.042969 1.8242 0.078125 3.6719 0 5.4961 c -0.042968 1.0234 -0.054687 2.0508 -0.10156 3.0742 c -0.015625 0.375 -0.14453 0.86328 -0.078125 1.2344 c 0.023437 0.125 0.19141 0.19141 0.28125 0.25781 c 0.22656 0.16797 0.42969 0.35938 0.60547 0.57422 c 0.49609 0.59766 0.76953 1.3438 0.80078 2.1172 c 0.015625 0.375 -0.082031 0.78125 -0.19922 1.1328 c -0.13281 0.39844 -0.33203 0.76562 -0.60547 1.0859 c -1.5859 1.8477 -4.5938 1.4727 -5.668 -0.73047 c -0.46484 -0.95703 -0.42969 -2.1172 0.078126 -3.0508 c 0.11328 -0.20703 0.25 -0.40234 0.40234 -0.57812 c 0.089844 -0.10156 0.22266 -0.19531 0.26953 -0.32422 c 0.085938 -0.23047 0.050782 -0.54297 0.066407 -0.78516 c 0.019531 -0.36328 0.0625 -0.72266 0.082031 -1.0859 c 0.14062 -2.6719 0.14062 -5.3398 0.20703 -8.0156 c 0.074219 -3.0391 0.074219 -6.0938 -0.46875 -9.1016 c -0.26953 -1.4961 -0.66406 -2.9609 -1.2617 -4.3633 c -0.15625 -0.36719 -0.32812 -0.72656 -0.50781 -1.0859 c -0.066406 -0.13672 -0.125 -0.33203 -0.23047 -0.44141 c -0.10156 -0.10547 -0.375 -0.035156 -0.50391 -0.023437 c -0.39062 0.046875 -0.81641 0.03125 -1.2109 0.03125 c -1.5859 0 -3.1914 -0.12891 -4.7656 -0.33594 c -3.5898 -0.46094 -7.0898 -1.3086 -10.543 -2.3828 c -2.1953 -0.68359 -4.3711 -1.6523 -6.6289 -2.0898 c -0.16797 0.27344 -0.23047 0.57812 -0.3125 0.88281 c -0.14453 0.51953 -0.28516 1.043 -0.42969 1.5625 c -0.52734 1.8945 -0.97266 3.8125 -1.4492 5.7227 c -1.2148 4.8633 -2.2578 9.7969 -2.8711 14.773 c -0.35156 2.8438 -0.39453 5.6953 -0.58984 8.5469 c -0.13281 1.957 -0.16406 3.9336 -0.17578 5.8984 c -0.003906 0.57422 -0.12109 1.1719 -0.089843 1.7383 c 0.050781 1.043 0.58984 2.0547 1.3281 2.7734 c 1.1875 1.1602 2.8945 1.9062 4.5391 2.0625 c 0.89844 0.085938 1.7734 0.042969 2.6719 0.003907 c 2.3555 -0.10156 4.6836 -0.4375 7.0078 -0.83203 c 4.918 -0.83203 9.8281 -1.707 14.75 -2.5195 c 4.457 -0.73828 8.9219 -1.3867 13.336 -2.3594 c 3 -0.66406 5.9258 -1.4922 8.7227 -2.7773 c 1.6055 -0.73828 3.2461 -1.7305 4.4609 -3.0352 c 0.59375 -0.63672 1.0547 -1.4062 1.4727 -2.168 c 0.48047 -0.87891 0.90625 -1.7812 1.1797 -2.75 c 1.1758 -4.1602 0.25 -8.5391 -0.19922 -12.73 c -0.375 -3.4883 -0.69141 -7.0703 -1.6328 -10.465 c -0.625 -2.2422 -1.3398 -4.4492 -2.0859 -6.6562 c -0.17578 -0.52344 -0.35547 -1.0664 -0.58984 -1.5625 c -0.066406 -0.13672 -0.17188 -0.4375 -0.35938 -0.43359 c -0.78125 0.015625 -1.5312 0.86719 -2.0938 1.332 c -1.3359 1.1133 -2.6953 2.1758 -4.2344 2.9922 c -4.5234 2.3867 -9.6172 3.7383 -14.672 4.3828 m -33.734 37.34 c -0.23828 -0.625 -0.64453 -1.1367 -0.78125 -1.8125 c -0.11328 -0.55859 -0.042968 -1.0547 -0.027344 -1.6133 c 0.015626 -0.66406 0.023438 -1.3281 0.050782 -1.9922 c 0.023437 -0.53516 -0.007813 -1.0781 0.003906 -1.6133 c 0.03125 -1.5742 0.13672 -3.1445 0.21875 -4.7148 c 0.11328 -2.1289 0.24219 -4.25 0.43359 -6.3789 c 0.16406 -1.8242 0.47266 -3.6445 0.79297 -5.4453 c 0.39063 -2.207 0.80078 -4.418 1.3203 -6.5977 c 0.64453 -2.6953 1.2695 -5.3984 1.9766 -8.0781 c 0.29687 -1.1094 0.68359 -2.2266 0.90234 -3.3516 c -1.0352 -0.43359 -1.9922 -1.0352 -3.0273 -1.4648 c -0.46484 -0.19141 -0.98047 -0.38672 -1.4336 -0.054687 c -0.20703 0.14844 -0.33984 0.40234 -0.48047 0.60938 c -0.48047 0.72266 -0.6875 1.5195 -0.91016 2.3438 c -0.58594 2.1641 -1.2852 4.2969 -1.9062 6.4531 c -1.5 5.2266 -2.7109 10.625 -3.2891 16.035 c -0.17578 1.6602 -0.28125 3.3008 -0.32422 4.9648 c -0.035157 1.3633 -0.023438 2.7344 0.19922 4.0859 c 0.30469 1.8594 0.9375 3.6914 2.1055 5.1953 c 0.58984 0.75781 1.3086 1.3984 2.0586 1.9961 c 0.45312 0.36328 0.92969 0.69922 1.4102 1.0195 c 0.21094 0.14062 0.45312 0.35547 0.70703 0.41016 m 54.281 -42.336 c 0.36328 -0.035157 0.47656 0.77344 0.54688 1.0195 c 0.32812 1.1484 0.61719 2.3125 0.875 3.4805 c 1.1094 4.9883 1.9023 10.062 2.3125 15.152 c 0.10938 1.3711 0.1875 2.7734 0.36719 4.1328 c 0.039062 0.30859 0.12109 0.73047 0.078125 1.0352 c -0.019532 0.13672 -0.10938 0.21484 -0.24219 0.22266 c -0.14062 0.007813 -0.23828 -0.089844 -0.26562 -0.22266 c -0.070312 -0.31641 -0.078125 -0.6875 -0.085937 -1.0078 c -0.035156 -1.3672 -0.19922 -2.7734 -0.35938 -4.1367 c -0.28516 -2.3945 -0.48047 -4.7969 -0.83203 -7.1836 c -0.39063 -2.6562 -0.91797 -5.293 -1.4805 -7.918 c -0.25391 -1.1758 -0.55859 -2.3477 -0.89062 -3.5039 c -0.070313 -0.23828 -0.48047 -1.0234 -0.019532 -1.0703 m -54.484 0.66797 l 0.023437 0.050782 h -0.050781 l 0.023437 -0.050782 m 27.582 0.45312 c 0.22656 0.23047 0.57813 0.36719 0.83203 0.57422 c 0.47266 0.38281 0.875 0.85156 1.2305 1.3398 c 2.9688 4.0898 3.7031 9.2266 3.7617 14.145 c 0.011719 0.84766 0.011719 1.6992 0 2.5469 c -0.003906 0.44141 0.039063 0.89844 -0.003906 1.3359 c -0.039063 0.41797 -0.003906 0.83984 -0.023437 1.2617 c -0.050782 1.1172 -0.070313 2.2383 -0.097657 3.3516 c -0.015625 0.61719 0.003907 1.2539 -0.070312 1.8672 c -0.058594 0.50391 -0.078125 1.0547 -0.082031 1.5625 c 0 0.09375 -0.089844 0.44531 0.011718 0.48828 c 0.11328 0.046874 0.375 -0.085938 0.49219 -0.11328 c 0.3125 -0.070312 0.66406 -0.10156 0.98438 -0.058594 c 0.089843 0.011719 0.36328 0.082032 0.42188 0 c 0.085937 -0.11328 0.039062 -0.36328 0.042968 -0.49219 c 0.007813 -0.375 0.023438 -0.76172 0.042969 -1.1328 c 0.085938 -1.6484 0.003907 -3.3125 0.11719 -4.9648 c 0.046875 -0.66016 -0.007813 -1.332 -0.023438 -1.9922 c -0.019531 -0.73047 0.007813 -1.4648 -0.023437 -2.1953 c -0.17578 -4.0508 -0.61719 -8.0977 -1.8164 -12 c -0.33594 -1.0938 -0.70703 -2.168 -1.2539 -3.1758 c -0.24219 -0.44922 -0.50781 -0.9375 -0.89062 -1.2812 c -1.0234 -0.91406 -2.3555 -1.0742 -3.6562 -1.0625 m -3.4023 1.918 c 0.375 0.066406 0.85547 -0.054687 1.2344 -0.097656 c 0.82422 -0.089844 1.6875 -0.13281 2.4961 -0.33203 v -0.050781 c -0.24219 -0.17969 -0.48047 -0.37109 -0.75781 -0.49219 c -0.84375 -0.375 -1.7148 -0.19922 -2.4219 0.375 c -0.20312 0.16406 -0.44531 0.35547 -0.55469 0.59766 m -21.781 -0.44141 c 0.24609 -0.058594 0.33984 0.20312 0.29297 0.39062 c -0.14062 0.58984 -0.32031 1.1758 -0.46484 1.7656 c -0.58984 2.3594 -1.1719 4.7227 -1.7539 7.0859 c -0.16016 0.65234 -0.30859 1.3086 -0.4375 1.9648 c -0.042969 0.20703 -0.03125 0.58984 -0.30859 0.61328 c -0.32422 0.027344 -0.27344 -0.36328 -0.23828 -0.5625 c 0.11719 -0.65234 0.26953 -1.3086 0.43359 -1.9492 c 0.58594 -2.3477 1.1641 -4.7031 1.75 -7.0508 c 0.14453 -0.57422 0.29297 -1.1445 0.45312 -1.7148 c 0.050781 -0.17578 0.058593 -0.48828 0.27344 -0.54297 m 21.48 1.5 v 0.023438 c 1.8125 0.23047 3.6016 0.26562 5.4219 0.25391 c -0.054688 -0.23438 -0.25 -0.46094 -0.39062 -0.65625 c -0.050781 -0.070313 -0.10156 -0.17188 -0.19141 -0.19141 c -0.125 -0.023438 -0.30078 0.042968 -0.42578 0.0625 c -0.33594 0.046874 -0.67188 0.10547 -1.0078 0.15234 c -1.1133 0.15625 -2.2773 0.35156 -3.4023 0.35547 m -25.262 13.469 c 0.41016 -0.042969 0.23828 0.60547 0.20703 0.82031 c -0.12109 0.91797 -0.26172 1.832 -0.38672 2.75 c -0.16016 1.1445 -0.19531 2.3047 -0.30469 3.4531 c -0.12109 1.2734 -0.29688 2.5781 -0.29688 3.8594 c 0 1.5352 0.15234 3.0742 0.15234 4.6133 c 0 1.0742 0.050782 2.1914 0.23047 3.2539 c 0.039063 0.23828 0.33203 0.93359 -0.078125 0.97266 c -0.36719 0.035156 -0.40625 -0.69922 -0.44141 -0.94922 c -0.16406 -1.0703 -0.21094 -2.1719 -0.21094 -3.2539 c 0 -1.6055 -0.17188 -3.2109 -0.15234 -4.8164 c 0.015626 -1.2344 0.19922 -2.4727 0.28906 -3.707 c 0.082031 -1.1289 0.125 -2.2812 0.29297 -3.4023 c 0.13672 -0.91016 0.28516 -1.832 0.38672 -2.75 c 0.027344 -0.23438 -0.003906 -0.8125 0.32031 -0.84766 m 58.922 10.062 c 0.40234 -0.027344 0.24219 0.60547 0.21094 0.82031 c -0.11328 0.83984 -0.35938 1.6523 -0.82422 2.3711 c -1.2539 1.9219 -3.4102 3.1484 -5.4375 4.1055 c -0.57422 0.26953 -1.1445 0.47656 -1.7656 0.60156 c -0.18359 0.035157 -0.44531 0.14062 -0.62891 0.09375 c -0.26563 -0.066406 -0.26563 -0.39453 -0.023438 -0.49219 c 0.48828 -0.19922 1.0586 -0.20703 1.5625 -0.40234 c 1.418 -0.54688 2.7852 -1.3477 3.9844 -2.2812 c 0.62109 -0.48438 1.207 -0.98047 1.668 -1.625 c 0.51562 -0.72266 0.85156 -1.5391 0.95312 -2.4219 c 0.023437 -0.21875 -0.011719 -0.74609 0.30469 -0.76953 m -12.355 8.2617 c 0.26172 -0.027343 0.52734 0.33203 0.22656 0.48047 c -0.16406 0.082031 -0.39844 0.070313 -0.57812 0.11328 c -0.4375 0.10547 -0.87109 0.21875 -1.3125 0.31641 c -1.2617 0.27734 -2.5234 0.57031 -3.7812 0.86719 c -1.5859 0.375 -3.168 0.78125 -4.7656 1.1133 c -3.2617 0.67578 -6.5703 1.1953 -9.8594 1.7344 c -1.6211 0.26563 -3.2773 0.57422 -4.918 0.6875 c -0.35938 0.023438 -0.72656 0.0625 -1.0859 0.12891 c -0.17578 0.035156 -0.34766 0.074219 -0.45703 -0.10547 c -0.10938 -0.17578 0.039062 -0.32812 0.20703 -0.375 c 0.35938 -0.10156 0.74219 -0.10547 1.1094 -0.14844 c 1.6016 -0.19141 3.1914 -0.43359 4.7891 -0.66016 c 1.6523 -0.23438 3.2969 -0.57031 4.9414 -0.85547 c 2.3203 -0.40234 4.6406 -0.76953 6.9336 -1.3125 c 2.0898 -0.49609 4.1797 -1.0156 6.2773 -1.4766 c 0.74609 -0.16406 1.5117 -0.42969 2.2695 -0.51172 z" stroke-linecap="round" />
</g>
<g transform="matrix(0.46945802550625304 0 0 0.46945802550625304 216.63673168681336 177.0482910396334)"  >
<path style="stroke: none; stroke-width: 0; stroke-dasharray: none; stroke-linecap: butt; stroke-dashoffset: 0; stroke-linejoin: miter; stroke-miterlimit: 4; fill: rgb(255,255,255); fill-rule: nonzero; opacity: 1;"  transform=" translate(-51.999509999999994, -50.00018999999999)" d="m 83.898 44.602 c -0.097657 -0.40234 -0.5 -0.60156 -0.89844 -0.60156 h -4.6016 c -0.39844 -1.8008 -0.89844 -3.5 -1.5 -5.1016 l 3.1992 -1.8008 c 0.30078 -0.19922 0.5 -0.60156 0.5 -1 c -0.19922 -1.3008 -0.60156 -2.5 -1.1992 -3.6016 c -0.60156 -1.1016 -1.5 -2.1016 -2.5 -2.8984 c -0.30078 -0.19922 -0.80078 -0.30078 -1.1016 -0.10156 l -3.1992 1.8008 c -0.5 -0.60156 -1 -1.1992 -1.6016 -1.8008 l -1 -10.699 v -0.10156 c -0.19922 -0.80078 -0.80078 -2.3984 -2.3984 -3.6016 c -1.3984 -1 -2.8008 -1.1992 -3.6016 -1.1992 c -0.30078 0 -0.5 0.10156 -0.69922 0.30078 c -0.19531 0.30469 -0.29688 0.50391 -0.29688 0.80469 v 8.5 c -4.1992 -2.1992 -8.8984 -3.5 -14 -3.5 s -9.8008 1.3008 -14 3.5 v -8.5 c 0 -0.30078 -0.10156 -0.5 -0.30078 -0.69922 s -0.5 -0.30078 -0.69922 -0.30078 c -0.69922 0 -2.1992 0.19922 -3.6016 1.1992 c -1.6016 1.1992 -2.1992 2.6992 -2.3984 3.6016 v 0.10156 l -1 10.699 c -5 5.3984 -8 12.5 -8 20.398 s 3 15.102 8 20.398 l 1 10.699 v 0.19922 c 0.19922 0.80078 0.80078 2.3984 2.3984 3.6016 c 1.3984 1 2.8008 1.1992 3.6016 1.1992 c 0.30078 0 0.5 -0.10156 0.69922 -0.30078 s 0.30078 -0.39844 0.30078 -0.69922 v -8.5 c 4.1992 2.1992 8.8984 3.5 14 3.5 s 9.8008 -1.3008 14 -3.5 v 8.4023 c 0 0.30078 0.10156 0.5 0.30078 0.69922 s 0.39844 0.30078 0.69922 0.30078 c 0.69922 0 2.1992 -0.19922 3.6016 -1.1992 c 1.6016 -1.1992 2.1992 -2.6992 2.3984 -3.6016 v -0.19922 l 1 -10.699 c 0.5 -0.60156 1.1016 -1.1992 1.6016 -1.8008 l 3.1992 1.8008 c 0.19922 0.10156 0.30078 0.10156 0.5 0.10156 s 0.39844 -0.10156 0.60156 -0.19922 c 1 -0.80078 1.8984 -1.6992 2.5 -2.8008 c 0.60156 -1.1016 1 -2.3008 1.1992 -3.6016 c 0 -0.39844 -0.19922 -0.80078 -0.5 -1 l -3.1992 -1.8008 c 0.69922 -1.6016 1.1992 -3.3008 1.5 -5.1016 h 4.5977 c 0.39844 0 0.80078 -0.19922 0.89844 -0.60156 c 0.69922 -1.6992 1.1016 -3.5 1.1016 -5.3984 c 0 -1.8984 -0.39844 -3.5977 -1.1016 -5.2969 z m -7.7969 -12.902 c 0.60156 0.5 1.1016 1.1992 1.5 1.8008 c 0.39844 0.69922 0.69922 1.3984 0.80078 2.1992 l -2.3984 1.3984 c -0.69922 -1.3984 -1.5 -2.8008 -2.3008 -4 z m -11.102 -15.598 c 0.39844 0.10156 0.89844 0.30078 1.3984 0.69922 c 1.1016 0.80078 1.5 1.8984 1.6016 2.3984 l 0.80078 8.3008 c -1.1992 -1 -2.3984 -2 -3.8008 -2.8008 z m -35 3.0977 c 0.10156 -0.5 0.5 -1.6016 1.6016 -2.3984 c 0.5 -0.39844 1 -0.5 1.3984 -0.69922 v 8.5 c -1.3008 0.80078 -2.6016 1.8008 -3.8008 2.8008 z m 3 64.699 c -0.39844 -0.10156 -0.89844 -0.30078 -1.3984 -0.69922 c -1.1016 -0.80078 -1.5 -1.8984 -1.6016 -2.3984 l -0.80078 -8.3008 c 1.1992 1 2.3984 2 3.8008 2.8008 z m 35 -3.0977 c -0.10156 0.5 -0.5 1.6016 -1.6016 2.3984 c -0.5 0.30078 -1 0.5 -1.3984 0.69922 v -8.5 c 1.3008 -0.80078 2.6016 -1.8008 3.8008 -2.8008 z m 10.398 -16.5 c -0.19922 0.80078 -0.5 1.5 -0.80078 2.1992 c -0.39844 0.69922 -0.89844 1.3008 -1.5 1.8008 l -2.3984 -1.3008 c 0.89844 -1.3008 1.6992 -2.6016 2.3008 -4 z m -29.398 13.699 c -15.398 0 -28 -12.602 -28 -28 s 12.602 -28 28 -28 s 28 12.602 28 28 s -12.602 28 -28 28 z m 33.301 -24 h -3.6016 c 0.19922 -1.3008 0.30078 -2.6016 0.30078 -4 s -0.10156 -2.6992 -0.30078 -4 h 3.6016 c 0.5 1.3008 0.69922 2.6016 0.69922 4 s -0.19922 2.6992 -0.69922 4 z m -19.602 26.301 c -0.19922 -0.19922 -0.39844 -0.30078 -0.69922 -0.30078 h -26 c -0.30078 0 -0.5 0.10156 -0.69922 0.30078 s -0.30078 0.5 -0.30078 0.69922 v 0.10156 l 1 12 c 0 0.5 0.5 0.89844 1 0.89844 h 24 c 0.5 0 1 -0.39844 1 -0.89844 l 1 -12 v -0.10156 c 0 -0.19922 -0.10156 -0.5 -0.30078 -0.69922 z m -25.598 1.6992 h 1.8984 v 0.10156 l 0.10156 0.89844 h -1.8984 z m 0.19922 3 h 1.8984 l 0.39844 4 h -2 z m 0.59766 7 l -0.10156 -1 h 2 l 0.10156 1 z m 5.1016 0 h -1 v -0.10156 l -1 -9.8984 h 2 z m 10 0 h -8 v -10 h 8 z m 3 0 h -1 v -10 h 2 l -1 9.8984 v 0.10156 z m 4.1016 0 h -2.1016 l 0.10156 -1 h 2 z m 0.19922 -3 h -2 l 0.39844 -4 h 1.8984 z m 0.5 -6 h -1.8984 l 0.10156 -0.89844 v -0.10156 h 1.8984 z m -11.801 1 c -1.1016 0 -2 0.89844 -2 2 s 0.89844 2 2 2 s 2 -0.89844 2 -2 s -0.89844 -2 -2 -2 z m 0 3 c -0.60156 0 -1 -0.39844 -1 -1 s 0.39844 -1 1 -1 s 1 0.39844 1 1 s -0.39844 1 -1 1 z m 0 -71 c 1.1016 0 2 -0.89844 2 -2 s -0.89844 -2 -2 -2 s -2 0.89844 -2 2 s 0.89844 2 2 2 z m 0 -3 c 0.60156 0 1 0.39844 1 1 s -0.39844 1 -1 1 s -1 -0.39844 -1 -1 s 0.39844 -1 1 -1 z m 13 -6.1016 c 0 -0.5 -0.5 -0.89844 -1 -0.89844 h -24 c -0.5 0 -1 0.39844 -1 0.89844 l -1 12 v 0.10156 c 0 0.19922 0.10156 0.5 0.30078 0.69922 s 0.5 0.30078 0.69922 0.30078 h 26 c 0.30078 0 0.5 -0.10156 0.69922 -0.30078 s 0.30078 -0.39844 0.30078 -0.69922 v -0.10156 z m -23 11.102 h -1.8984 l 0.10156 -1 h 1.8984 l -0.10156 0.89844 v 0.10156 z m 0.30078 -3 h -1.8984 l 0.30078 -4 h 2 z m 0.59766 -6 h -2 l 0.10156 -1 h 2 z m 3.1016 9 h -2 l 1 -9.8984 v -0.10156 h 1 z m 10 0 h -8 v -10 h 8 z m 2 0 v -10 h 1 v 0.10156 l 1 9.8984 z m 3 -10 h 2.1016 l 0.10156 1 h -2 z m 0.30078 3 h 2 l 0.30078 4 h -1.8984 z m 0.69922 7 v -0.10156 l -0.10156 -0.89844 h 1.8984 l 0.10156 1 z m 1.3984 49.699 c 0.30078 0.5 0.19922 1.1016 -0.39844 1.3984 c -0.60156 0.30078 -1.1016 0.19922 -1.3984 -0.39844 l -2 -3.5 c -0.30078 -0.5 -0.19922 -1.1016 0.39844 -1.3984 c 0.60156 -0.30078 1.1016 -0.19922 1.3984 0.39844 z m -1.3984 -16.699 c 0 0.39844 -0.19922 0.69922 -0.5 0.80078 v 2.1992 c 0 0.30078 -0.19922 0.5 -0.5 0.5 s -0.5 -0.19922 -0.5 -0.5 v -2.1992 c -0.30078 -0.10156 -0.5 -0.40234 -0.5 -0.80078 c 0 -0.60156 0.39844 -1 1 -1 s 1 0.39844 1 1 z m -10 3 c -2.8008 0 -5 2.1992 -5 5 s 2.1992 5 5 5 s 5 -2.1992 5 -5 s -2.1992 -5 -5 -5 z m 0 9 c -2.1992 0 -4 -1.8008 -4 -4 s 1.8008 -4 4 -4 s 4 1.8008 4 4 s -1.8008 4 -4 4 z m 1 4 v 4 c 0 0.60156 -0.39844 1 -1 1 s -1 -0.39844 -1 -1 v -4 c 0 -0.60156 0.39844 -1 1 -1 s 1 0.39844 1 1 z m -10 -21 c -2.8008 0 -5 2.1992 -5 5 s 2.1992 5 5 5 s 5 -2.1992 5 -5 s -2.1992 -5 -5 -5 z m 0 9 c -2.1992 0 -4 -1.8008 -4 -4 s 1.8008 -4 4 -4 s 4 1.8008 4 4 s -1.8008 4 -4 4 z m 18 -9 c -2.8008 0 -5 2.1992 -5 5 s 2.1992 5 5 5 s 5 -2.1992 5 -5 s -2.1992 -5 -5 -5 z m 0 9 c -2.1992 0 -4 -1.8008 -4 -4 s 1.8008 -4 4 -4 s 4 1.8008 4 4 s -1.8008 4 -4 4 z m -8 4 c 0 0.60156 -0.39844 1 -1 1 s -1 -0.39844 -1 -1 c 0 -0.39844 0.19922 -0.69922 0.5 -0.80078 v -2.1992 c 0 -0.30078 0.19922 -0.5 0.5 -0.5 s 0.5 0.19922 0.5 0.5 v 2.1992 c 0.30078 0.10156 0.5 0.40234 0.5 0.80078 z m -1 -34 c -13.801 0 -25 11.199 -25 25 s 11.199 25 25 25 s 25 -11.199 25 -25 s -11.199 -25 -25 -25 z m 0 48 c -12.699 0 -23 -10.301 -23 -23 s 10.301 -23 23 -23 s 23 10.301 23 23 s -10.301 23 -23 23 z m 19.102 -12 c -0.30078 0.5 -0.80078 0.69922 -1.3984 0.39844 l -3.5 -2 c -0.5 -0.30078 -0.69922 -0.80078 -0.39844 -1.3984 c 0.30078 -0.5 0.80078 -0.69922 1.3984 -0.39844 l 3.5 2 c 0.49609 0.29688 0.69531 0.89844 0.39844 1.3984 z m -2.3008 -24.602 c 0.30078 0.39844 0.30078 1.1016 -0.10156 1.3984 l -14.699 11.902 v 0.30078 c 0 1.1016 -0.89844 2 -2 2 s -2 -0.89844 -2 -2 v -0.30078 l -9.3984 -7.8984 c -0.39844 -0.39844 -0.5 -1 -0.10156 -1.3984 c 0.39844 -0.39844 1 -0.5 1.3984 -0.10156 l 9.3984 7.8984 c 0.20312 -0.19922 0.50391 -0.19922 0.70312 -0.19922 c 0.30078 0 0.5 0.10156 0.69922 0.10156 l 14.699 -11.898 c 0.40234 -0.30469 1.1016 -0.30469 1.4023 0.19531 z m 0.19922 12.602 h 4 c 0.60156 0 1 0.39844 1 1 s -0.39844 1 -1 1 h -4 c -0.60156 0 -1 -0.39844 -1 -1 s 0.39844 -1 1 -1 z m -2.8008 -8.3984 l 3.5 -2 c 0.5 -0.30078 1.1016 -0.19922 1.3984 0.39844 c 0.30078 0.5 0.19922 1.1016 -0.39844 1.3984 l -3.5 2 c -0.5 0.30078 -1.1016 0.19922 -1.3984 -0.39844 c -0.19922 -0.5 -0.10156 -1.1016 0.39844 -1.3984 z m -22.199 10.398 c 0 0.60156 -0.39844 1 -1 1 l -1.1016 1.8008 c -0.10156 0.19922 -0.30078 0.19922 -0.39844 0.19922 c -0.10156 0 -0.19922 0 -0.19922 -0.10156 c -0.19922 -0.10156 -0.30078 -0.39844 -0.19922 -0.69922 l 1.1016 -1.8984 c -0.10156 0 -0.20312 -0.10156 -0.20312 -0.30078 c 0 -0.60156 0.39844 -1 1 -1 s 1 0.39844 1 1 z m 0.39844 14.199 l -2 3.5 c -0.30078 0.5 -0.80078 0.69922 -1.3984 0.39844 c -0.60156 -0.30078 -0.69922 -0.80078 -0.39844 -1.3984 l 2 -3.5 c 0.30078 -0.5 0.80078 -0.69922 1.3984 -0.39844 c 0.60156 0.30078 0.69922 0.89844 0.39844 1.3984 z m 15.203 -30.398 l 2 -3.5 c 0.30078 -0.5 0.80078 -0.69922 1.3984 -0.39844 c 0.5 0.30078 0.69922 0.80078 0.39844 1.3984 l -2 3.5 c -0.30078 0.5 -0.80078 0.69922 -1.3984 0.39844 c -0.5 -0.39844 -0.69922 -0.89844 -0.39844 -1.3984 z m -24.602 16.199 h -4 c -0.60156 0 -1 -0.39844 -1 -1 s 0.39844 -1 1 -1 h 4 c 0.60156 0 1 0.39844 1 1 s -0.39844 1 -1 1 z m -2.1016 -12 c 0.30078 -0.5 0.80078 -0.69922 1.3984 -0.39844 l 3.5 2 c 0.5 0.30078 0.69922 0.80078 0.39844 1.3984 c -0.30078 0.5 -0.80078 0.69922 -1.3984 0.39844 l -3.5 -2 c -0.49609 -0.29688 -0.69531 -0.89844 -0.39844 -1.3984 z m 18.102 -6 v -4 c 0 -0.60156 0.39844 -1 1 -1 s 1 0.39844 1 1 v 4 c 0 0.60156 -0.39844 1 -1 1 s -1 -0.39844 -1 -1 z m -12.898 25 c 0.30078 0.5 0.19922 1.1016 -0.39844 1.3984 l -3.5 2 c -0.5 0.30078 -1.1016 0.19922 -1.3984 -0.39844 c -0.30078 -0.5 -0.19922 -1.1016 0.39844 -1.3984 l 3.5 -2 c 0.59766 -0.30078 1.0977 -0.10156 1.3984 0.39844 z m 9.8984 -19 c 0 -0.60156 0.39844 -1 1 -1 h 6 c 0.60156 0 1 0.39844 1 1 s -0.39844 1 -1 1 h -6 c -0.60156 0 -1 -0.39844 -1 -1 z m -7.3984 -6.6992 c -0.30078 -0.5 -0.19922 -1.1016 0.39844 -1.3984 c 0.5 -0.30078 1.1016 -0.19922 1.3984 0.39844 l 2 3.5 c 0.30078 0.5 0.19922 1.1016 -0.39844 1.3984 c -0.5 0.30078 -1.1016 0.19922 -1.3984 -0.39844 z" stroke-linecap="round" />
</g>
</svg>